<svg width="16" height="16" viewBox="0 0 16 16" fill="none" xmlns="http://www.w3.org/2000/svg">
<path d="M7.15625 0.0374878C7.0625 0.0499878 6.84375 0.0874878 6.67187 0.112488C6.5 0.140613 6.21875 0.196863 6.04687 0.237488C5.875 0.281238 5.62187 0.353113 5.48437 0.396863C5.34687 0.440613 5.11562 0.524988 4.96875 0.587488C4.82187 0.646863 4.58437 0.756238 4.4375 0.828113C4.29062 0.899988 4.09062 1.00936 3.99062 1.06561C3.89374 1.12499 3.81875 1.17811 3.825 1.18749C3.83437 1.19686 3.94375 1.18436 4.06875 1.15936C4.25625 1.12499 4.35 1.12186 4.57812 1.15311C4.73125 1.17499 4.9875 1.23436 5.14062 1.28436C5.29375 1.33749 5.56875 1.44999 5.75 1.53436C5.93125 1.62186 6.24687 1.79061 6.45312 1.91249C6.65937 2.03436 6.98125 2.24061 7.17187 2.36874C7.3625 2.49999 7.62187 2.68436 7.75 2.78436L7.98437 2.96249C8.27499 2.74686 8.54375 2.55936 8.76562 2.40936C8.9875 2.25624 9.3125 2.05311 9.48437 1.95311C9.65625 1.85624 9.90312 1.72186 10.0312 1.65624C10.1594 1.59374 10.3937 1.48749 10.5469 1.42811C10.7 1.36561 10.9406 1.28749 11.0781 1.25311C11.2156 1.21874 11.425 1.18436 11.5469 1.17186C11.6687 1.15936 11.8406 1.16561 11.9375 1.18436C12.0312 1.20311 12.1437 1.22499 12.1875 1.23749L12.2656 1.25624C12.1437 1.15624 11.9187 1.03124 11.6875 0.909363C11.4562 0.790613 11.1031 0.628113 10.9062 0.549988C10.7094 0.471863 10.3625 0.359363 10.1406 0.296863C9.91875 0.237488 9.57187 0.159363 9.375 0.128113C9.17812 0.0937378 8.9125 0.0531128 8.7875 0.0343628C8.66562 0.0156128 8.28437 0.00311279 7.94687 0.00311279C7.60625 0.00623779 7.25 0.0218628 7.15625 0.0374878ZM12.5156 2.16874C12.3781 2.22499 12.1312 2.33749 11.9687 2.41874C11.8062 2.50311 11.5437 2.64686 11.3906 2.74374C11.2375 2.83749 10.9969 2.99374 10.8594 3.08749C10.7219 3.18436 10.5031 3.34374 10.375 3.44374C10.2469 3.54686 9.98437 3.76249 9.79375 3.93124L9.45 4.23436C10.325 5.17811 10.6625 5.55311 10.7687 5.67186C10.8719 5.79374 11.0844 6.04374 11.2375 6.23436C11.3937 6.42499 11.6375 6.74061 11.7844 6.93749C11.9312 7.13436 12.1344 7.42499 12.2406 7.57811C12.3437 7.73124 12.5406 8.04999 12.6781 8.28124C12.8156 8.51249 13.0062 8.84374 13.1 9.01561C13.1937 9.18749 13.3437 9.49061 13.4375 9.68749C13.5281 9.88436 13.6469 10.175 13.7031 10.3281C13.7594 10.4812 13.8406 10.7562 13.8844 10.9375C13.9281 11.1187 13.9812 11.3937 14 11.5469C14.025 11.7281 14.0344 12.025 14.0219 12.375C14.0125 12.675 13.9875 13.0187 13.9656 13.1406L13.9281 13.3594C13.7375 12.7594 13.5844 12.3969 13.425 12.0781C13.2812 11.7844 13.0344 11.3562 12.8812 11.125C12.725 10.8937 12.475 10.55 12.3219 10.3625C12.1719 10.1719 11.7812 9.70936 11.4562 9.33124C11.1312 8.94999 10.6187 8.37186 10.3156 8.04686C10.0125 7.72186 9.36874 7.05311 8.88437 6.56249L8.00312 5.67186C7.58437 6.08436 6.9625 6.71561 6.35 7.34374C5.74062 7.97186 5.06875 8.68124 4.8625 8.92186C4.65312 9.16249 4.36249 9.50624 4.21562 9.68749C4.06875 9.86874 3.82187 10.1844 3.67187 10.3906C3.51874 10.5969 3.25624 10.975 3.08437 11.2344C2.91562 11.4906 2.68125 11.8937 2.56249 12.125C2.44687 12.3562 2.30624 12.6781 2.25312 12.8344C2.2 12.9937 2.15624 13.1594 2.15624 13.2031C2.15624 13.2469 2.14062 13.2875 2.12499 13.2969C2.10625 13.3062 2.0875 13.2906 2.07812 13.2656C2.06874 13.2406 2.04687 13.0687 2.03124 12.8812C2.00937 12.6625 2.00937 12.4187 2.03124 12.1719C2.04687 11.9656 2.08437 11.6781 2.10937 11.5312C2.1375 11.3844 2.2 11.1125 2.24999 10.9219C2.29999 10.7312 2.40312 10.3937 2.48125 10.1719C2.55625 9.94999 2.68749 9.60311 2.77187 9.40624C2.85624 9.20936 3.04999 8.82811 3.20312 8.56249C3.35625 8.29686 3.61875 7.86561 3.79062 7.60936C3.9625 7.34999 4.30312 6.87186 4.54687 6.54686C4.79375 6.22186 5.17499 5.73436 5.39687 5.46874C5.62187 5.20311 5.95937 4.81561 6.15 4.60936C6.34375 4.40311 6.5 4.22811 6.5 4.21874C6.50312 4.20936 6.34687 4.05311 6.15625 3.86561C5.96875 3.68124 5.66875 3.41561 5.49062 3.27499C5.31562 3.13436 5.0375 2.93124 4.875 2.82499C4.7125 2.71874 4.4375 2.55936 4.26562 2.47499C4.09375 2.38749 3.84062 2.28124 3.70312 2.23749C3.56562 2.19061 3.36249 2.14061 3.24999 2.12186C3.08437 2.09374 3.00937 2.09686 2.84999 2.13749C2.74374 2.16561 2.60312 2.21249 2.53749 2.24686C2.47499 2.27811 2.33124 2.38749 2.22187 2.48749C2.11249 2.59061 1.92187 2.79686 1.79687 2.95311C1.67187 3.10624 1.45937 3.39686 1.32812 3.59374C1.19687 3.79061 0.97812 4.17186 0.84687 4.43749C0.71562 4.70311 0.54687 5.09061 0.47187 5.29686C0.399995 5.50311 0.29687 5.84061 0.243745 6.04686C0.193745 6.25311 0.12187 6.60311 0.087495 6.82811C0.04687 7.08124 0.018745 7.46561 0.00937002 7.84374C-0.00312998 8.30624 0.00624502 8.54686 0.043745 8.84374C0.07187 9.05936 0.12187 9.37499 0.156245 9.54686C0.19062 9.71874 0.26562 10.0281 0.324995 10.2344C0.38437 10.4406 0.49062 10.7562 0.562495 10.9375C0.63437 11.1187 0.774995 11.4281 0.874995 11.625C0.97812 11.8219 1.13437 12.1031 1.225 12.25C1.31562 12.3969 1.49687 12.6562 1.62499 12.8281C1.75312 13 2.08437 13.3656 2.35937 13.6406C2.63437 13.9156 2.99999 14.2469 3.17187 14.375C3.34374 14.5031 3.61875 14.6906 3.78124 14.7937C3.94374 14.8969 4.275 15.075 4.51562 15.1937C4.75625 15.3094 5.11562 15.4625 5.3125 15.5344C5.50937 15.6031 5.83437 15.7 6.03125 15.7531C6.22812 15.8031 6.62187 15.8781 6.90625 15.9219C7.31562 15.9844 7.54375 16 8 16C8.45312 16 8.6875 15.9812 9.07812 15.925C9.35312 15.8812 9.74687 15.8062 9.95312 15.7531C10.1594 15.7031 10.4906 15.6031 10.6875 15.5344C10.8844 15.4625 11.2437 15.3094 11.4844 15.1937C11.725 15.075 12.0625 14.8906 12.2344 14.7844C12.4062 14.675 12.6594 14.5 12.7969 14.3969C12.9344 14.2937 13.1437 14.1219 13.2656 14.0156C13.3875 13.9062 13.6 13.7031 13.7406 13.5594C13.8812 13.4156 14.0906 13.1844 14.2031 13.0469C14.3187 12.9094 14.525 12.6281 14.6625 12.4219C14.8 12.2156 15.0219 11.8281 15.1531 11.5625C15.2844 11.2969 15.4531 10.9094 15.5281 10.7031C15.6 10.4969 15.7 10.1656 15.75 9.96874C15.8 9.77186 15.8562 9.52499 15.8719 9.42186C15.8906 9.31874 15.9281 9.06561 15.9531 8.85936C15.9781 8.65311 16 8.25936 16 7.98436C16 7.70936 15.9781 7.32186 15.9531 7.12499C15.925 6.92811 15.8906 6.68124 15.8719 6.57811C15.8562 6.47499 15.8 6.22811 15.75 6.03124C15.7 5.83436 15.6031 5.50936 15.5344 5.31249C15.4625 5.11561 15.3094 4.75624 15.1937 4.51561C15.075 4.27499 14.8906 3.93749 14.7844 3.76561C14.675 3.59374 14.4875 3.31874 14.3625 3.15624C14.2406 2.99374 14.0125 2.72811 13.8594 2.56561C13.7 2.39999 13.5187 2.24374 13.4375 2.20311C13.3594 2.16561 13.2219 2.11561 13.1312 2.09686C13.0437 2.07811 12.9219 2.06249 12.8656 2.06561C12.8125 2.06561 12.6531 2.11249 12.5156 2.16874Z" fill="white"/>
</svg>
