<svg width="16" height="16" viewBox="0 0 16 16" fill="none" xmlns="http://www.w3.org/2000/svg">
<path d="M15.6406 0.534375C15.5719 0.55 13.8781 0.76875 11.875 1.01562C9.87187 1.26562 8.18125 1.475 8.11563 1.48438L8 1.5V7.5H16V0.5C15.8188 0.50625 15.7094 0.51875 15.6406 0.534375ZM3.46875 2.06562C1.5875 2.30312 0.0375 2.49688 0.021875 2.5C0.009375 2.5 0 3.625 0 5V7.5H7C7 1.78438 6.99687 1.625 6.94375 1.62812C6.91563 1.63125 5.35 1.825 3.46875 2.06562ZM0 11V13.5C0.18125 13.525 1.70312 13.7156 3.5 13.9375C5.29688 14.1594 6.81875 14.35 6.88438 14.3594L7 14.375V8.5H0V11ZM8 11.5C8 13.15 8.00312 14.5 8.00937 14.5C8.0125 14.5 9.75313 14.7188 11.875 14.9875C13.9969 15.2563 15.7937 15.4812 15.8687 15.4875L16 15.5V8.5H8V11.5Z" fill="white"/>
</svg>
