<svg width="14" height="16" viewBox="0 0 14 16" fill="none" xmlns="http://www.w3.org/2000/svg">
<path d="M9.60938 0.096875C9.4375 0.146875 9.15625 0.259375 8.98438 0.340625C8.8125 0.425 8.55313 0.58125 8.40625 0.690625C8.25938 0.8 8.05937 0.971875 7.9625 1.07812C7.8625 1.18125 7.71875 1.35 7.64062 1.45312C7.5625 1.55625 7.44375 1.74688 7.37813 1.875C7.30938 2.00312 7.21562 2.20937 7.17188 2.32812C7.125 2.44688 7.0625 2.66563 7.02812 2.8125C6.99375 2.97187 6.96875 3.20312 6.96875 3.39062V3.70312C7.45625 3.66875 7.67812 3.62812 7.82812 3.58125C7.96562 3.5375 8.19063 3.44375 8.32812 3.37188C8.46562 3.30313 8.675 3.16875 8.79688 3.07812C8.91875 2.98438 9.0875 2.83438 9.17813 2.74375C9.26562 2.65313 9.41875 2.46563 9.51562 2.32812C9.61563 2.19062 9.75 1.96875 9.81563 1.83438C9.88125 1.70312 9.975 1.48438 10.0188 1.35312C10.0625 1.21875 10.1188 1.00625 10.1438 0.884375C10.1687 0.759375 10.1875 0.509375 10.1875 0.328125V0C9.98125 0.003125 9.78125 0.046875 9.60938 0.096875ZM9.65625 3.87812C9.50937 3.89062 9.25 3.93438 9.07812 3.97813C8.90625 4.02187 8.50625 4.15625 8.1875 4.275C7.86875 4.39687 7.53125 4.51562 7.4375 4.54375C7.34375 4.57187 7.19375 4.59375 7.10938 4.59375C7.02187 4.59375 6.875 4.575 6.78125 4.55C6.6875 4.525 6.35 4.40625 6.03125 4.2875C5.7125 4.16875 5.325 4.0375 5.17188 3.99688C4.94375 3.9375 4.80937 3.925 4.46875 3.925C4.17812 3.925 3.9625 3.94062 3.78125 3.98125C3.63438 4.0125 3.41563 4.075 3.29688 4.11562C3.17812 4.15937 2.95312 4.25938 2.79688 4.3375C2.64062 4.41875 2.40313 4.56562 2.26562 4.66875C2.12812 4.76875 1.90937 4.95937 1.78125 5.09375C1.65313 5.225 1.45938 5.45938 1.35625 5.6125C1.25 5.76562 1.1125 5.99687 1.04688 6.125C0.98125 6.25313 0.8875 6.47188 0.8375 6.60938C0.7875 6.74687 0.7125 6.99375 0.671875 7.15625C0.63125 7.31875 0.58125 7.55937 0.55625 7.6875C0.53125 7.84062 0.515625 8.18437 0.515625 8.6875C0.515625 9.15312 0.53125 9.55625 0.55625 9.71875C0.578125 9.86563 0.625 10.1313 0.659375 10.3125C0.696875 10.4937 0.765625 10.7875 0.8125 10.9688C0.8625 11.15 0.959375 11.4656 1.03125 11.6719C1.10312 11.8781 1.225 12.1938 1.3 12.375C1.37812 12.5562 1.53437 12.8781 1.64375 13.0938C1.75625 13.3094 1.94062 13.625 2.05312 13.7969C2.16562 13.9688 2.4 14.3 2.57188 14.5312C2.74688 14.7625 3.02187 15.0875 3.18437 15.25C3.35 15.4125 3.575 15.6063 3.6875 15.6781C3.8 15.7531 4.00312 15.8531 4.14062 15.9062C4.34375 15.9812 4.4375 16 4.64062 16C4.80625 16 4.9875 15.975 5.17188 15.925C5.325 15.8844 5.64375 15.7719 5.875 15.6781C6.10625 15.5844 6.425 15.475 6.57812 15.4344C6.80312 15.3781 6.94688 15.3625 7.29688 15.3625C7.60938 15.3625 7.8 15.3781 7.96875 15.4156C8.09688 15.4469 8.42812 15.5625 8.70312 15.6719C8.97812 15.7812 9.29375 15.8906 9.40625 15.9156C9.51875 15.9437 9.7 15.9719 9.8125 15.9844C9.96875 16 10.075 15.9906 10.2812 15.9375C10.4281 15.9031 10.6313 15.8313 10.7344 15.7812C10.8375 15.7312 11.0344 15.6 11.1719 15.4906C11.3094 15.3781 11.5188 15.1719 11.6406 15.0312C11.7625 14.8906 11.9875 14.5969 12.1406 14.3813C12.2969 14.1625 12.5125 13.8438 12.6219 13.6719C12.7281 13.5 12.9125 13.1625 13.0312 12.9219C13.1469 12.6812 13.3031 12.325 13.3719 12.1344C13.4437 11.9406 13.5 11.7719 13.5 11.7594C13.5 11.7437 13.4406 11.7063 13.3687 11.6719C13.2937 11.6375 13.1062 11.5281 12.9531 11.425C12.7906 11.3219 12.5531 11.1219 12.3875 10.9563C12.2344 10.8 12.0437 10.5813 11.9688 10.4688C11.8938 10.3562 11.7719 10.1375 11.7 9.98438C11.6281 9.83125 11.5406 9.59688 11.5031 9.46875C11.4688 9.34062 11.425 9.11563 11.4031 8.96875C11.3812 8.80625 11.3719 8.54688 11.3844 8.29688C11.3969 8.00313 11.425 7.80937 11.4812 7.59375C11.525 7.43125 11.6312 7.15625 11.7156 6.98438C11.8 6.8125 11.9531 6.55937 12.0531 6.42188C12.1562 6.28438 12.3469 6.06875 12.4781 5.94688C12.6125 5.82188 12.8031 5.65938 12.9031 5.5875L13.0875 5.45312C12.9125 5.2125 12.7625 5.04375 12.6438 4.92188C12.5219 4.80312 12.3031 4.62188 12.1562 4.525C12.0094 4.42812 11.7625 4.29063 11.6094 4.22188C11.4563 4.15313 11.2094 4.0625 11.0625 4.02187C10.9156 3.97812 10.6687 3.92812 10.5156 3.90937C10.3625 3.89062 10.1625 3.87188 10.0781 3.86875C9.99063 3.8625 9.8 3.86875 9.65625 3.87812Z" fill="white"/>
</svg>
