<svg width="16" height="12" viewBox="0 0 16 12" fill="none" xmlns="http://www.w3.org/2000/svg">
<path d="M5.16955 6.88571C5.13514 6.90087 4.36886 7.16781 3.46497 7.48024C2.56107 7.78965 1.66031 8.10511 1.46326 8.18095C1.26622 8.25375 0.978474 8.37811 0.822091 8.45698C0.665708 8.53585 0.456154 8.66628 0.352941 8.74212C0.249728 8.82098 0.134004 8.93019 0.0964724 8.98479C0.0558128 9.03939 0.0151531 9.13342 0.00577013 9.19105C-0.0098682 9.26689 0.00577012 9.34272 0.0589404 9.46102C0.108983 9.57022 0.187175 9.67032 0.290388 9.75829C0.374835 9.83109 0.559367 9.94332 0.696984 10.007C0.834601 10.0707 1.08169 10.1648 1.24433 10.2163C1.40696 10.2679 1.70409 10.3437 1.90114 10.3862C2.09818 10.4287 2.40782 10.4833 2.58922 10.5075C2.77063 10.5348 3.14282 10.5682 3.41805 10.5834C3.73082 10.6016 4.10614 10.6016 4.41891 10.5864C4.69414 10.5712 4.98189 10.55 5.06008 10.5409C5.13827 10.5318 5.2321 10.5166 5.26963 10.5075C5.34157 10.4954 5.34157 10.4954 5.34157 9.87356C5.34157 9.53079 5.33218 9.25172 5.31655 9.25172C5.30404 9.25172 5.06946 9.33362 4.79423 9.43675C4.51899 9.53685 4.16557 9.65212 4.01231 9.69156C3.85593 9.73099 3.61822 9.77042 3.48061 9.78256C3.33048 9.79469 3.14282 9.78862 3.01146 9.76739C2.89261 9.74919 2.75499 9.71279 2.70495 9.68852C2.65803 9.66426 2.59548 9.60966 2.5642 9.56719C2.51416 9.49439 2.51416 9.48529 2.5642 9.38519C2.60799 9.30935 2.67054 9.26082 2.81441 9.19409C2.92388 9.14859 3.5369 8.92412 4.17808 8.70268L5.3447 8.29621C5.34157 6.90997 5.33844 6.85537 5.2884 6.85841C5.25712 6.85841 5.20395 6.87054 5.16955 6.88571ZM11.8002 7.40441C11.5781 7.41654 11.231 7.45598 11.0339 7.49238C10.8369 7.52878 10.5116 7.59854 10.3146 7.64708C10.1175 7.69864 9.79536 7.78661 9.60145 7.84425L9.25115 7.94738C9.25115 9.05152 9.26053 9.37305 9.27617 9.37305C9.28868 9.37305 9.86104 9.17892 10.5491 8.94535C11.2372 8.70875 11.9284 8.49035 12.0817 8.46002C12.2349 8.42968 12.4695 8.40238 12.5978 8.40238C12.726 8.40238 12.8949 8.41755 12.9731 8.43272C13.0513 8.45092 13.1639 8.48428 13.2233 8.50855C13.2827 8.53282 13.3546 8.58742 13.3797 8.62685C13.4235 8.69662 13.4203 8.70875 13.3703 8.77852C13.3421 8.82402 13.2139 8.90288 13.0888 8.96052C12.9668 9.01815 12.6322 9.14555 12.3475 9.24869C12.0629 9.35182 11.256 9.63696 10.5491 9.88266L9.26679 10.3286C9.25428 11.4115 9.2574 11.7421 9.26679 11.7603C9.2793 11.7876 9.46696 11.733 9.92985 11.5692C10.2895 11.4418 11.4311 11.0444 12.4726 10.6895C13.5142 10.3316 14.4837 9.98579 14.6307 9.91906C14.7777 9.85536 14.9873 9.76739 15.0999 9.72189C15.2125 9.67942 15.3814 9.59752 15.4752 9.53989C15.569 9.48529 15.7129 9.37305 15.7911 9.29115C15.8693 9.21229 15.9506 9.09095 15.9756 9.02422C15.9975 8.95142 16.0069 8.85132 15.9944 8.77245C15.985 8.70268 15.9569 8.60865 15.9318 8.56012C15.9099 8.51462 15.838 8.42968 15.7786 8.37205C15.716 8.31441 15.5909 8.22038 15.5002 8.16881C15.4095 8.11421 15.2 8.01715 15.0373 7.95345C14.8747 7.88671 14.5651 7.78358 14.3492 7.72291C14.1334 7.66224 13.805 7.58034 13.6142 7.54091C13.4235 7.50148 13.1295 7.45294 12.9574 7.43474C12.7854 7.41958 12.5477 7.39834 12.4257 7.39228C12.3038 7.38621 12.0223 7.39228 11.8002 7.40441ZM6.12348 5.63293V11.2689C8.00321 11.827 8.56619 11.9939 8.58808 11.9999C8.61623 12.009 8.62874 11.0444 8.635 7.25578C8.64125 3.08795 8.64751 2.49341 8.68817 2.43578C8.71319 2.39938 8.77262 2.34781 8.82266 2.32051C8.86957 2.29625 8.9634 2.27501 9.03221 2.27501C9.10102 2.27501 9.19485 2.29018 9.24489 2.30838C9.29181 2.32355 9.37 2.37511 9.42004 2.42061C9.47009 2.46611 9.53577 2.55711 9.56704 2.62385C9.62021 2.73912 9.62647 2.86348 9.62647 4.73809V6.73404C9.97677 6.87054 10.1363 6.92514 10.2051 6.94334C10.2739 6.96154 10.4365 6.98884 10.5648 7.00704C10.7305 7.02827 10.8682 7.02827 11.0339 7.00704C11.1934 6.98581 11.3436 6.93727 11.5031 6.86144C11.6563 6.78864 11.8002 6.6855 11.9253 6.56417C12.0285 6.46104 12.1568 6.30634 12.213 6.21534C12.2693 6.12433 12.3507 5.9484 12.3976 5.82403C12.4414 5.69967 12.4977 5.46003 12.5258 5.2932C12.5602 5.07176 12.5696 4.85943 12.5571 4.50453C12.5446 4.23759 12.5164 3.89482 12.4883 3.74619C12.4601 3.59452 12.3945 3.34882 12.3444 3.20019C12.2912 3.04852 12.2037 2.84528 12.1442 2.74518C12.0848 2.64508 11.9597 2.46611 11.8628 2.35085C11.7658 2.23255 11.6 2.06571 11.4937 1.97471C11.3873 1.88371 11.1872 1.73811 11.0496 1.65014C10.9119 1.56521 10.7086 1.44994 10.596 1.39534C10.4834 1.34074 10.2457 1.23761 10.0643 1.16784C9.88294 1.09807 9.26992 0.894838 8.70381 0.718904C8.1377 0.54297 7.50278 0.348835 7.29636 0.291202C7.08993 0.233568 6.74902 0.142567 6.53946 0.0940338C6.32678 0.0424669 6.14851 0 6.13912 0C6.12974 0 6.12348 2.53588 6.12348 5.63597V5.63293Z" fill="white"/>
</svg>
