<svg width="26" height="26" viewBox="0 0 26 26" fill="none" xmlns="http://www.w3.org/2000/svg">
<path fill-rule="evenodd" clip-rule="evenodd" d="M16.2462 17.375C15.9619 19.7358 15.4509 21.7675 14.7867 23.2288C14.4753 23.913 14.1366 24.4634 13.7639 24.8361C13.518 25.082 13.273 25.25 13 25.25C12.727 25.25 12.482 25.082 12.2361 24.8361C11.8634 24.4634 11.5247 23.913 11.2133 23.2288C10.5491 21.7675 10.0381 19.7358 9.75375 17.375H16.2462ZM10.116 1.09213C4.74438 2.38975 0.75 7.232 0.75 13C0.75 18.768 4.74438 23.6102 10.116 24.9079C9.14213 23.2664 8.37125 20.5889 7.99762 17.375H5.125C4.642 17.375 4.25 16.983 4.25 16.5C4.25 16.017 4.642 15.625 5.125 15.625H7.8375C7.77975 14.7762 7.75 13.8977 7.75 13C7.75 12.1023 7.77975 11.2238 7.8375 10.375H5.125C4.642 10.375 4.25 9.983 4.25 9.5C4.25 9.017 4.642 8.625 5.125 8.625H7.99762C8.37125 5.41112 9.14213 2.73363 10.116 1.09213ZM15.884 1.09213C16.8579 2.73363 17.6287 5.41112 18.0024 8.625H20.875C21.358 8.625 21.75 9.017 21.75 9.5C21.75 9.983 21.358 10.375 20.875 10.375H18.1625C18.2202 11.2238 18.25 12.1023 18.25 13C18.25 13.8977 18.2202 14.7762 18.1625 15.625H20.875C21.358 15.625 21.75 16.017 21.75 16.5C21.75 16.983 21.358 17.375 20.875 17.375H18.0024C17.6287 20.5889 16.8579 23.2664 15.884 24.9079C21.2556 23.6102 25.25 18.768 25.25 13C25.25 7.232 21.2556 2.38975 15.884 1.09213ZM16.4108 10.375C16.4694 11.222 16.5 12.1005 16.5 13C16.5 13.8995 16.4694 14.778 16.4108 15.625H9.58925C9.53063 14.778 9.5 13.8995 9.5 13C9.5 12.1005 9.53063 11.222 9.58925 10.375H16.4108ZM9.75375 8.625C10.0381 6.26425 10.5491 4.2325 11.2133 2.77125C11.5247 2.087 11.8634 1.53663 12.2361 1.16388C12.482 0.918 12.727 0.75 13 0.75C13.273 0.75 13.518 0.918 13.7639 1.16388C14.1366 1.53663 14.4753 2.087 14.7867 2.77125C15.4509 4.2325 15.9619 6.26425 16.2462 8.625H9.75375Z" fill="white" fill-opacity="0.8"/>
</svg>
