<svg width="27" height="24" viewBox="0 0 27 24" fill="none" xmlns="http://www.w3.org/2000/svg">
<path d="M0 21.2659C2.98109 21.4899 5.57906 20.7155 7.97201 18.7523C6.75085 18.5955 5.68681 18.2547 4.7889 17.4947C3.91492 16.7491 3.24448 15.8194 2.88531 14.549H5.10017C5.11215 14.4962 5.12412 14.4434 5.13609 14.3778C3.91492 13.9986 2.87334 13.317 2.09514 12.2306C1.31695 11.1586 0.935331 9.91374 0.897918 8.55051C1.67611 8.78732 2.41839 9.02252 3.17264 9.24493C3.19659 9.19212 3.2325 9.14092 3.25645 9.08812C2.17895 8.11851 1.40075 6.95369 1.11491 5.44806C0.819866 3.97958 1.0275 2.44665 1.70006 1.12798C4.69312 4.95045 8.4509 7.07209 13.0707 7.42569C12.927 6.18087 12.9151 5.02885 13.3101 3.90243C14.675 -0.038439 19.2708 -1.29606 22.1307 1.53279C22.4539 1.84639 22.7293 1.8992 23.0765 1.76799C24.0223 1.40159 24.9546 1.00958 25.9244 0.615973C25.5532 1.912 24.7511 2.86881 23.8068 3.79843C24.7272 3.53602 25.649 3.26082 26.5589 2.99842C26.5948 3.03842 26.6307 3.06402 26.6667 3.10402C25.9723 3.88963 25.3018 4.71525 24.5491 5.42246C24.142 5.80166 24.0103 6.15527 23.9864 6.73128C23.7709 13.1474 21.3645 18.3315 16.2418 21.5939C11.0234 24.906 5.6509 24.7092 0.360664 21.5539C0.264886 21.4899 0.18108 21.4099 0.00149652 21.2659H0Z" fill="white" fill-opacity="0.8"/>
</svg>
