<svg width="180" height="180" viewBox="0 0 180 180" fill="none" xmlns="http://www.w3.org/2000/svg">
<g clip-path="url(#clip0_981_29613)">
<rect width="180" height="180" rx="38.6719" fill="#0D0A2C"/>
<g filter="url(#filter0_f_981_29613)">
<ellipse cx="198.291" cy="1.96918" rx="57.2302" ry="132.135" transform="rotate(28.3027 198.291 1.96918)" fill="#21FCC7"/>
</g>
<g filter="url(#filter1_f_981_29613)">
<circle cx="268.793" cy="131.156" r="116.367" transform="rotate(65.6373 268.793 131.156)" fill="#0819B5"/>
</g>
<g filter="url(#filter2_f_981_29613)">
<ellipse cx="89.8468" cy="-5.55761" rx="144.316" ry="60.293" transform="rotate(65.6373 89.8468 -5.55761)" fill="#07D2FB"/>
</g>
</g>
<g filter="url(#filter3_bd_981_29613)">
<g filter="url(#filter4_d_981_29613)">
<path d="M64.449 57.4805H45.5273C45.3332 57.4805 45.1758 57.6379 45.1758 57.832V111.705C45.1758 111.798 45.2128 111.887 45.2787 111.953L55.7922 122.474C55.8591 122.541 55.95 122.578 56.0446 122.577L72.9931 122.401C73.1859 122.399 73.341 122.242 73.341 122.049V111.103C73.341 110.912 73.1882 110.756 72.997 110.752L65.1447 110.585C64.9535 110.581 64.8006 110.425 64.8006 110.233V57.832C64.8006 57.6379 64.6432 57.4805 64.449 57.4805Z" fill="url(#paint0_radial_981_29613)"/>
<path d="M64.449 57.4805H45.5273C45.3332 57.4805 45.1758 57.6379 45.1758 57.832V111.705C45.1758 111.798 45.2128 111.887 45.2787 111.953L55.7922 122.474C55.8591 122.541 55.95 122.578 56.0446 122.577L72.9931 122.401C73.1859 122.399 73.341 122.242 73.341 122.049V111.103C73.341 110.912 73.1882 110.756 72.997 110.752L65.1447 110.585C64.9535 110.581 64.8006 110.425 64.8006 110.233V57.832C64.8006 57.6379 64.6432 57.4805 64.449 57.4805Z" fill="white"/>
<path d="M112.057 63.663H90.2026C90.1103 63.663 90.0216 63.6993 89.9558 63.7642L78.1732 75.3764C78.1045 75.4442 78.0666 75.5372 78.0685 75.6337L78.2405 84.4116C78.2442 84.6031 78.4005 84.7563 78.592 84.7563H97.5205C97.7147 84.7563 97.8721 84.5989 97.8721 84.4047V76.7433C97.8721 76.5491 98.0295 76.3917 98.2236 76.3917H112.057C112.252 76.3917 112.409 76.2343 112.409 76.0402V64.0146C112.409 63.8204 112.252 63.663 112.057 63.663Z" fill="url(#paint1_radial_981_29613)"/>
<path d="M112.057 63.663H90.2026C90.1103 63.663 90.0216 63.6993 89.9558 63.7642L78.1732 75.3764C78.1045 75.4442 78.0666 75.5372 78.0685 75.6337L78.2405 84.4116C78.2442 84.6031 78.4005 84.7563 78.592 84.7563H97.5205C97.7147 84.7563 97.8721 84.5989 97.8721 84.4047V76.7433C97.8721 76.5491 98.0295 76.3917 98.2236 76.3917H112.057C112.252 76.3917 112.409 76.2343 112.409 76.0402V64.0146C112.409 63.8204 112.252 63.663 112.057 63.663Z" fill="white"/>
<path d="M134.839 75.38L123.233 63.7661C123.167 63.7001 123.075 63.663 122.982 63.663C117.43 63.6649 115.678 63.7734 115.498 63.9176C115.353 64.063 115.244 69.3727 115.28 75.7371L115.315 86.9494C115.316 87.144 115.158 87.3021 114.964 87.3021H102.221C102.027 87.3021 101.87 87.4595 101.87 87.6536V97.4972C101.87 97.6913 102.027 97.8487 102.221 97.8487H114.967C115.161 97.8487 115.318 98.0045 115.319 98.1977L115.496 122.056C115.497 122.246 115.649 122.401 115.839 122.405L122.98 122.575C123.076 122.578 123.168 122.54 123.236 122.473L134.874 110.862C134.94 110.796 134.978 110.707 134.978 110.613V98.9197C134.978 98.817 134.931 98.718 134.853 98.6512C130.66 95.0586 129.196 93.736 128.908 93.4118C128.472 92.83 128.727 92.5027 131.707 89.9569L134.856 87.2258C134.933 87.1588 134.977 87.0614 134.977 86.9591L134.942 75.6274C134.941 75.5346 134.904 75.4457 134.839 75.38Z" fill="url(#paint2_radial_981_29613)"/>
<path d="M134.839 75.38L123.233 63.7661C123.167 63.7001 123.075 63.663 122.982 63.663C117.43 63.6649 115.678 63.7734 115.498 63.9176C115.353 64.063 115.244 69.3727 115.28 75.7371L115.315 86.9494C115.316 87.144 115.158 87.3021 114.964 87.3021H102.221C102.027 87.3021 101.87 87.4595 101.87 87.6536V97.4972C101.87 97.6913 102.027 97.8487 102.221 97.8487H114.967C115.161 97.8487 115.318 98.0045 115.319 98.1977L115.496 122.056C115.497 122.246 115.649 122.401 115.839 122.405L122.98 122.575C123.076 122.578 123.168 122.54 123.236 122.473L134.874 110.862C134.94 110.796 134.978 110.707 134.978 110.613V98.9197C134.978 98.817 134.931 98.718 134.853 98.6512C130.66 95.0586 129.196 93.736 128.908 93.4118C128.472 92.83 128.727 92.5027 131.707 89.9569L134.856 87.2258C134.933 87.1588 134.977 87.0614 134.977 86.9591L134.942 75.6274C134.941 75.5346 134.904 75.4457 134.839 75.38Z" fill="white"/>
<path d="M97.5205 101.485H78.5988C78.4046 101.485 78.2472 101.643 78.2472 101.837V110.614C78.2472 110.707 78.2842 110.796 78.3501 110.862L89.9543 122.475C90.0209 122.541 90.1116 122.578 90.2059 122.578L111.884 122.4C112.075 122.398 112.229 122.244 112.232 122.053L112.404 110.207C112.407 110.011 112.248 109.85 112.052 109.85H98.2236C98.0295 109.85 97.8721 109.693 97.8721 109.499V101.837C97.8721 101.643 97.7147 101.485 97.5205 101.485Z" fill="url(#paint3_radial_981_29613)"/>
<path d="M97.5205 101.485H78.5988C78.4046 101.485 78.2472 101.643 78.2472 101.837V110.614C78.2472 110.707 78.2842 110.796 78.3501 110.862L89.9543 122.475C90.0209 122.541 90.1116 122.578 90.2059 122.578L111.884 122.4C112.075 122.398 112.229 122.244 112.232 122.053L112.404 110.207C112.407 110.011 112.248 109.85 112.052 109.85H98.2236C98.0295 109.85 97.8721 109.693 97.8721 109.499V101.837C97.8721 101.643 97.7147 101.485 97.5205 101.485Z" fill="white"/>
</g>
</g>
<defs>
<filter id="filter0_f_981_29613" x="-502.11" y="-737.519" width="1400.8" height="1478.98" filterUnits="userSpaceOnUse" color-interpolation-filters="sRGB">
<feFlood flood-opacity="0" result="BackgroundImageFix"/>
<feBlend mode="normal" in="SourceGraphic" in2="BackgroundImageFix" result="shape"/>
<feGaussianBlur stdDeviation="310" result="effect1_foregroundBlur_981_29613"/>
</filter>
<filter id="filter1_f_981_29613" x="-467.603" y="-605.24" width="1472.79" height="1472.79" filterUnits="userSpaceOnUse" color-interpolation-filters="sRGB">
<feFlood flood-opacity="0" result="BackgroundImageFix"/>
<feBlend mode="normal" in="SourceGraphic" in2="BackgroundImageFix" result="shape"/>
<feGaussianBlur stdDeviation="310" result="effect1_foregroundBlur_981_29613"/>
</filter>
<filter id="filter2_f_981_29613" x="-411.152" y="-559.379" width="1002" height="1107.64" filterUnits="userSpaceOnUse" color-interpolation-filters="sRGB">
<feFlood flood-opacity="0" result="BackgroundImageFix"/>
<feBlend mode="normal" in="SourceGraphic" in2="BackgroundImageFix" result="shape"/>
<feGaussianBlur stdDeviation="210" result="effect1_foregroundBlur_981_29613"/>
</filter>
<filter id="filter3_bd_981_29613" x="-154.824" y="-142.52" width="489.802" height="465.097" filterUnits="userSpaceOnUse" color-interpolation-filters="sRGB">
<feFlood flood-opacity="0" result="BackgroundImageFix"/>
<feGaussianBlur in="BackgroundImageFix" stdDeviation="100"/>
<feComposite in2="SourceAlpha" operator="in" result="effect1_backgroundBlur_981_29613"/>
<feColorMatrix in="SourceAlpha" type="matrix" values="0 0 0 0 0 0 0 0 0 0 0 0 0 0 0 0 0 0 127 0" result="hardAlpha"/>
<feOffset dy="2"/>
<feGaussianBlur stdDeviation="3"/>
<feComposite in2="hardAlpha" operator="out"/>
<feColorMatrix type="matrix" values="0 0 0 0 0 0 0 0 0 0 0 0 0 0 0 0 0 0 0.15 0"/>
<feBlend mode="normal" in2="effect1_backgroundBlur_981_29613" result="effect2_dropShadow_981_29613"/>
<feBlend mode="normal" in="SourceGraphic" in2="effect2_dropShadow_981_29613" result="shape"/>
</filter>
<filter id="filter4_d_981_29613" x="34.6289" y="48.6914" width="110.896" height="86.1909" filterUnits="userSpaceOnUse" color-interpolation-filters="sRGB">
<feFlood flood-opacity="0" result="BackgroundImageFix"/>
<feColorMatrix in="SourceAlpha" type="matrix" values="0 0 0 0 0 0 0 0 0 0 0 0 0 0 0 0 0 0 127 0" result="hardAlpha"/>
<feOffset dy="1.75781"/>
<feGaussianBlur stdDeviation="5.27344"/>
<feComposite in2="hardAlpha" operator="out"/>
<feColorMatrix type="matrix" values="0 0 0 0 0 0 0 0 0 0 0 0 0 0 0 0 0 0 0.25 0"/>
<feBlend mode="normal" in2="BackgroundImageFix" result="effect1_dropShadow_981_29613"/>
<feBlend mode="normal" in="SourceGraphic" in2="effect1_dropShadow_981_29613" result="shape"/>
</filter>
<radialGradient id="paint0_radial_981_29613" cx="0" cy="0" r="1" gradientUnits="userSpaceOnUse" gradientTransform="translate(90.0767 90.0296) rotate(90) scale(32.5492 44.9009)">
<stop stop-color="white"/>
<stop offset="1" stop-color="white" stop-opacity="0.4"/>
</radialGradient>
<radialGradient id="paint1_radial_981_29613" cx="0" cy="0" r="1" gradientUnits="userSpaceOnUse" gradientTransform="translate(90.0767 90.0296) rotate(90) scale(32.5492 44.9009)">
<stop stop-color="white"/>
<stop offset="1" stop-color="white" stop-opacity="0.4"/>
</radialGradient>
<radialGradient id="paint2_radial_981_29613" cx="0" cy="0" r="1" gradientUnits="userSpaceOnUse" gradientTransform="translate(90.0767 90.0296) rotate(90) scale(32.5492 44.9009)">
<stop stop-color="white"/>
<stop offset="1" stop-color="white" stop-opacity="0.4"/>
</radialGradient>
<radialGradient id="paint3_radial_981_29613" cx="0" cy="0" r="1" gradientUnits="userSpaceOnUse" gradientTransform="translate(90.0767 90.0296) rotate(90) scale(32.5492 44.9009)">
<stop stop-color="white"/>
<stop offset="1" stop-color="white" stop-opacity="0.4"/>
</radialGradient>
<clipPath id="clip0_981_29613">
<rect width="180" height="180" rx="38.6719" fill="white"/>
</clipPath>
</defs>
</svg>
