<svg width="28" height="28" viewBox="0 0 28 28" fill="none" xmlns="http://www.w3.org/2000/svg">
<path fill-rule="evenodd" clip-rule="evenodd" d="M5 8C5 7.44772 5.44772 7 6 7H22C22.5523 7 23 7.44772 23 8C23 8.55228 22.5523 9 22 9H6C5.44772 9 5 8.55228 5 8Z" fill="white"/>
<path fill-rule="evenodd" clip-rule="evenodd" d="M5 14C5 13.4477 5.44772 13 6 13H22C22.5523 13 23 13.4477 23 14C23 14.5523 22.5523 15 22 15H6C5.44772 15 5 14.5523 5 14Z" fill="white"/>
<path fill-rule="evenodd" clip-rule="evenodd" d="M5 20C5 19.4477 5.44772 19 6 19H13C13.5523 19 14 19.4477 14 20C14 20.5523 13.5523 21 13 21H6C5.44772 21 5 20.5523 5 20Z" fill="white"/>
</svg>
