<svg width="13" height="13" viewBox="0 0 13 13" fill="none" xmlns="http://www.w3.org/2000/svg">
<path d="M6.25 0C4.59297 0.00186928 3.00434 0.66095 1.83265 1.83265C0.66095 3.00434 0.00186928 4.59297 0 6.25V11.5208C0.000297436 11.7804 0.103558 12.0293 0.287128 12.2129C0.470697 12.3965 0.719585 12.4997 0.979187 12.5H6.25C7.9076 12.5 9.49732 11.8415 10.6694 10.6694C11.8415 9.49732 12.5 7.9076 12.5 6.25C12.5 4.5924 11.8415 3.00269 10.6694 1.83058C9.49732 0.65848 7.9076 0 6.25 0ZM3.24988 7.25006C3.10154 7.25006 2.95654 7.20608 2.8332 7.12366C2.70986 7.04125 2.61373 6.92412 2.55697 6.78708C2.5002 6.65003 2.48535 6.49923 2.51429 6.35374C2.54323 6.20826 2.61466 6.07462 2.71955 5.96973C2.82444 5.86484 2.95807 5.79341 3.10356 5.76447C3.24905 5.73554 3.39985 5.75039 3.53689 5.80715C3.67394 5.86392 3.79107 5.96005 3.87348 6.08338C3.95589 6.20672 3.99988 6.35173 3.99988 6.50006C3.99988 6.69897 3.92086 6.88974 3.78021 7.03039C3.63956 7.17104 3.44879 7.25006 3.24988 7.25006V7.25006ZM6.24988 7.25006C6.10154 7.25006 5.95654 7.20608 5.8332 7.12366C5.70986 7.04125 5.61373 6.92412 5.55697 6.78708C5.5002 6.65003 5.48535 6.49923 5.51429 6.35374C5.54323 6.20826 5.61466 6.07462 5.71955 5.96973C5.82444 5.86484 5.95807 5.79341 6.10356 5.76447C6.24905 5.73554 6.39985 5.75039 6.53689 5.80715C6.67394 5.86392 6.79107 5.96005 6.87348 6.08338C6.95589 6.20672 6.99988 6.35173 6.99988 6.50006C6.99988 6.69897 6.92086 6.88974 6.78021 7.03039C6.63956 7.17104 6.44879 7.25006 6.24988 7.25006V7.25006ZM9.24988 7.25006C9.10154 7.25006 8.95654 7.20608 8.8332 7.12366C8.70986 7.04125 8.61373 6.92412 8.55697 6.78708C8.5002 6.65003 8.48535 6.49923 8.51429 6.35374C8.54323 6.20826 8.61466 6.07462 8.71955 5.96973C8.82444 5.86484 8.95807 5.79341 9.10356 5.76447C9.24905 5.73554 9.39985 5.75039 9.53689 5.80715C9.67394 5.86392 9.79107 5.96005 9.87348 6.08338C9.95589 6.20672 9.99988 6.35173 9.99988 6.50006C9.99988 6.69897 9.92086 6.88974 9.78021 7.03039C9.63955 7.17104 9.44879 7.25006 9.24988 7.25006V7.25006Z" fill="white"/>
</svg>
