<svg width="40" height="40" viewBox="0 0 40 40" fill="none" xmlns="http://www.w3.org/2000/svg">
<path fill-rule="evenodd" clip-rule="evenodd" d="M9.29292 30.3404C8.9024 29.9499 8.9024 29.3167 9.29292 28.9262L28.8787 9.34041C29.2692 8.94988 29.9024 8.94988 30.2929 9.34041C30.6834 9.73093 30.6834 10.3641 30.2929 10.7546L10.7071 30.3404C10.3166 30.7309 9.68345 30.7309 9.29292 30.3404Z" fill="white"/>
<path fill-rule="evenodd" clip-rule="evenodd" d="M9.70708 9.34041C10.0976 8.94988 10.7308 8.94988 11.1213 9.34041L30.7071 28.9262C31.0976 29.3167 31.0976 29.9499 30.7071 30.3404C30.3166 30.7309 29.6834 30.7309 29.2929 30.3404L9.70708 10.7546C9.31655 10.3641 9.31655 9.73093 9.70708 9.34041Z" fill="white"/>
</svg>
