<svg width="13" height="16" viewBox="0 0 13 16" fill="none" xmlns="http://www.w3.org/2000/svg">
<path d="M10.2712 12.433H10.4558C11.5657 12.433 12.2856 11.8138 12.2856 10.517V5.00463H9.0539C8.46376 5.00463 8.10469 4.6411 8.10469 4.04838V0.571289H5.00601C3.79963 0.571289 3.13979 1.23456 3.13979 2.43739V2.7167H4.02507C4.9189 2.7167 5.5801 2.92778 6.22208 3.57669L9.4967 6.88836C10.1252 7.52842 10.2712 8.24692 10.2712 9.10962V12.433ZM9.20503 4.22197H12.1935C12.1689 4.02245 12.0253 3.84525 11.8068 3.62085L9.46628 1.19391C9.25869 0.971028 9.07689 0.827814 8.88244 0.806554L8.88717 3.88952C8.88717 4.12268 8.97474 4.22197 9.20503 4.22197Z" fill="black" fill-opacity="0.7"/>
<path d="M2.15914 15.4284H7.55903C8.79469 15.4284 9.43253 14.7683 9.43253 13.5125V8.97819H5.33005C4.5921 8.97819 4.2335 8.61031 4.2335 7.86694V3.56676H2.15914C0.928178 3.56676 0.285645 4.22103 0.285645 5.48274V13.5125C0.285645 14.7742 0.923448 15.4284 2.15914 15.4284ZM5.38656 8.12436L9.32453 8.12227C9.26166 7.87556 9.11339 7.64006 8.84756 7.36613L5.80958 4.24136C5.54744 3.97012 5.31887 3.78859 5.07207 3.71488V7.80653C5.07207 8.01561 5.18214 8.12436 5.38656 8.12436Z" fill="black" fill-opacity="0.7"/>
</svg>
