<svg width="28" height="22" viewBox="-14 -11 56 44" fill="none" xmlns="http://www.w3.org/2000/svg">
<path d="M26.5355 17.4109L19.5935 10.8972C19.0683 10.4284 18.4589 10.1769 17.8324 10.1769C17.19 10.1769 16.6137 10.3975 16.0788 10.8758L10.7862 15.606L8.62453 13.6553C8.13234 13.2121 7.59117 12.9894 7.04249 12.9894C6.50039 12.9894 6.02507 13.2004 5.53288 13.6436L1.11023 17.6073C1.16788 19.7664 2.17217 20.893 4.11232 20.893H23.1117C25.4627 20.893 26.6346 19.6799 26.5355 17.4109ZM9.0785 11.1536C10.6134 11.1536 11.8788 9.8882 11.8788 8.33945C11.8788 6.80453 10.6134 5.52742 9.0785 5.52742C7.52975 5.52742 6.26436 6.80453 6.26436 8.33945C6.26436 9.8882 7.52975 11.1536 9.0785 11.1536ZM3.84421 21.8779H23.9109C26.4499 21.8779 27.7552 20.5822 27.7552 18.0817V3.80992C27.7552 1.30727 26.4499 0.00415039 23.9109 0.00415039H3.84421C1.31484 0.00415039 0 1.30727 0 3.80992V18.0817C0 20.5822 1.31484 21.8779 3.84421 21.8779ZM3.97733 19.5819C2.88772 19.5819 2.29592 19.0178 2.29592 17.8792V4.01031C2.29592 2.87171 2.88772 2.30007 3.97733 2.30007H23.7778C24.8578 2.30007 25.4592 2.87171 25.4592 4.01031V17.8792C25.4592 19.0178 24.8578 19.5819 23.7778 19.5819H3.97733Z" fill="white" fill-opacity="0.6"/>
</svg>
