<svg width="28" height="28" viewBox="0 0 28 28" fill="none" xmlns="http://www.w3.org/2000/svg">
<path fill-rule="evenodd" clip-rule="evenodd" d="M17.2462 18.375C16.9619 20.7357 16.4509 22.7675 15.7867 24.2288C15.4752 24.913 15.1366 25.4634 14.7639 25.8361C14.518 26.082 14.273 26.25 14 26.25C13.727 26.25 13.482 26.082 13.2361 25.8361C12.8634 25.4634 12.5248 24.913 12.2133 24.2288C11.5491 22.7675 11.0381 20.7357 10.7537 18.375H17.2462ZM11.116 2.09213C5.74438 3.38975 1.75 8.232 1.75 14C1.75 19.768 5.74438 24.6102 11.116 25.9079C10.1421 24.2664 9.37125 21.5889 8.99762 18.375H6.125C5.642 18.375 5.25 17.983 5.25 17.5C5.25 17.017 5.642 16.625 6.125 16.625H8.8375C8.77975 15.7762 8.75 14.8978 8.75 14C8.75 13.1022 8.77975 12.2238 8.8375 11.375H6.125C5.642 11.375 5.25 10.983 5.25 10.5C5.25 10.017 5.642 9.625 6.125 9.625H8.99762C9.37125 6.41112 10.1421 3.73363 11.116 2.09213V2.09213ZM16.884 2.09213C17.8579 3.73363 18.6287 6.41112 19.0024 9.625H21.875C22.358 9.625 22.75 10.017 22.75 10.5C22.75 10.983 22.358 11.375 21.875 11.375H19.1625C19.2202 12.2238 19.25 13.1022 19.25 14C19.25 14.8978 19.2202 15.7762 19.1625 16.625H21.875C22.358 16.625 22.75 17.017 22.75 17.5C22.75 17.983 22.358 18.375 21.875 18.375H19.0024C18.6287 21.5889 17.8579 24.2664 16.884 25.9079C22.2556 24.6102 26.25 19.768 26.25 14C26.25 8.232 22.2556 3.38975 16.884 2.09213V2.09213ZM17.4108 11.375C17.4694 12.222 17.5 13.1005 17.5 14C17.5 14.8995 17.4694 15.778 17.4108 16.625H10.5893C10.5306 15.778 10.5 14.8995 10.5 14C10.5 13.1005 10.5306 12.222 10.5893 11.375H17.4108V11.375ZM10.7537 9.625C11.0381 7.26425 11.5491 5.2325 12.2133 3.77125C12.5248 3.087 12.8634 2.53663 13.2361 2.16388C13.482 1.918 13.727 1.75 14 1.75C14.273 1.75 14.518 1.918 14.7639 2.16388C15.1366 2.53663 15.4752 3.087 15.7867 3.77125C16.4509 5.2325 16.9619 7.26425 17.2462 9.625H10.7537V9.625Z" fill="white" fill-opacity="0.8"/>
</svg>
