<svg width="24" height="24" viewBox="0 0 24 24" fill="none" xmlns="http://www.w3.org/2000/svg">
<g filter="url(#filter0_bd_1759_35251)">
<path d="M5 10.7273L12.8227 18.55C13.0713 18.7985 13.4742 18.7985 13.7227 18.55L19 13.2727M8.81818 13.9091L11.55 11.1772C11.7985 10.9287 12.2015 10.9287 12.45 11.1772L16.4545 15.1818M15.5794 7.94314H16.0567M15.5794 8.42042H16.0567M10.0909 19H13.9091C15.6911 19 16.5821 19 17.2627 18.6532C17.8614 18.3482 18.3482 17.8614 18.6532 17.2627C19 16.5821 19 15.6911 19 13.9091V10.0909C19 8.30892 19 7.41793 18.6532 6.7373C18.3482 6.13861 17.8614 5.65185 17.2627 5.3468C16.5821 5 15.6911 5 13.9091 5H10.0909C8.30892 5 7.41793 5 6.7373 5.3468C6.13861 5.65185 5.65185 6.13861 5.3468 6.7373C5 7.41793 5 8.30892 5 10.0909V13.9091C5 15.6911 5 16.5821 5.3468 17.2627C5.65185 17.8614 6.13861 18.3482 6.7373 18.6532C7.41793 19 8.30892 19 10.0909 19ZM16.4545 8.18182C16.4545 8.53327 16.1696 8.81818 15.8182 8.81818C15.4667 8.81818 15.1818 8.53327 15.1818 8.18182C15.1818 7.83036 15.4667 7.54545 15.8182 7.54545C16.1696 7.54545 16.4545 7.83036 16.4545 8.18182Z" stroke="white" stroke-linecap="round"/>
</g>
<defs>
<filter id="filter0_bd_1759_35251" x="-10" y="-10" width="44" height="44" filterUnits="userSpaceOnUse" color-interpolation-filters="sRGB">
<feFlood flood-opacity="0" result="BackgroundImageFix"/>
<feGaussianBlur in="BackgroundImageFix" stdDeviation="5"/>
<feComposite in2="SourceAlpha" operator="in" result="effect1_backgroundBlur_1759_35251"/>
<feColorMatrix in="SourceAlpha" type="matrix" values="0 0 0 0 0 0 0 0 0 0 0 0 0 0 0 0 0 0 127 0" result="hardAlpha"/>
<feOffset dy="1"/>
<feGaussianBlur stdDeviation="1.5"/>
<feColorMatrix type="matrix" values="0 0 0 0 0 0 0 0 0 0 0 0 0 0 0 0 0 0 0.2 0"/>
<feBlend mode="normal" in2="effect1_backgroundBlur_1759_35251" result="effect2_dropShadow_1759_35251"/>
<feBlend mode="normal" in="SourceGraphic" in2="effect2_dropShadow_1759_35251" result="shape"/>
</filter>
</defs>
</svg>
