<svg width="13" height="16" viewBox="0 0 13 16" fill="none" xmlns="http://www.w3.org/2000/svg">
<path d="M0.285645 13.8694C0.285645 14.4339 0.421179 14.7715 0.937204 15.027C2.09314 15.5419 3.6976 15.8748 5.58908 15.8748C7.52799 15.8748 9.69159 15.5779 11.2014 14.8461C12.0411 14.4487 12.257 14.0685 12.257 13.1911V2.95553C12.257 1.80803 11.7339 1.27031 10.6278 1.27031H9.99947V1.03861C9.99947 0.340714 9.62244 0 8.99582 0C8.77804 0 8.5213 0.046875 8.2237 0.144241C6.20862 0.798749 4.35439 1.23268 2.00555 1.23268H1.49395C0.718903 1.23268 0.285645 1.67263 0.285645 2.38191V13.8694ZM2.75448 6.46526V4.17174C2.75448 4.07678 2.82386 3.99642 2.91881 3.98973C4.46462 3.92464 5.85506 3.67781 7.29347 3.14463C7.37382 3.11115 7.51564 3.14463 7.51564 3.30655V5.6933C7.51564 5.75354 7.48216 5.81503 7.42067 5.83634C6.16553 6.34886 4.52127 6.626 2.91881 6.6272C2.83055 6.6272 2.75448 6.5724 2.75448 6.46526ZM3.77941 14.5526C6.16764 14.4572 8.3045 13.8001 9.4845 12.9011C9.84919 12.6233 10.0007 12.3425 10.0007 11.723V2.52562H10.6019C10.8688 2.52562 11.0016 2.66825 11.0016 2.96999V13.0585C11.0016 13.4542 10.9354 13.6184 10.5512 13.7846C9.33319 14.3154 7.65827 14.6566 6.06639 14.6723C5.30218 14.6807 4.57039 14.6447 3.77941 14.5526Z" fill="white"/>
</svg>
