<svg width="16" height="17" viewBox="0 0 16 17" fill="none" xmlns="http://www.w3.org/2000/svg">
<path d="M2.33763 12.4955L2.81197 12.6536L2.33763 12.4955ZM2.95469 10.6443L2.48035 10.4862L2.48035 10.4862L2.95469 10.6443ZM3.59139 9.61407L3.94495 9.96762L3.94495 9.96762L3.59139 9.61407ZM9.74052 3.46495L9.38696 3.11139V3.11139L9.74052 3.46495ZM13.0351 6.75949L13.3886 7.11304L13.0351 6.75949ZM6.88593 12.9086L6.53238 12.5551L6.53238 12.5551L6.88593 12.9086ZM5.85572 13.5453L6.01383 14.0197H6.01383L5.85572 13.5453ZM4.00455 14.1624L4.16266 14.6367L4.16266 14.6367L4.00455 14.1624ZM6.5482 13.2238L6.24708 12.8247L6.24708 12.8247L6.5482 13.2238ZM6.2887 13.3842L6.06635 12.9364L6.2887 13.3842ZM13.8287 4.3808L13.3807 4.60281V4.60281L13.8287 4.3808ZM13.8287 5.84363L13.3807 5.62162V5.62162L13.8287 5.84363ZM10.6564 2.67128L10.8784 3.11929V3.11929L10.6564 2.67128ZM12.1192 2.67128L11.8972 3.11929V3.11929L12.1192 2.67128ZM3.11578 10.2113L3.56362 10.4337L3.56362 10.4336L3.11578 10.2113ZM3.27617 9.9518L2.87701 9.65067L2.87701 9.65068L3.27617 9.9518ZM2.03067 13.9702L1.55971 14.1381L2.03067 13.9702ZM2.52981 14.4693L2.36187 14.9403H2.36187L2.52981 14.4693ZM9.27043 3.93506C9.07517 3.73979 8.75858 3.73979 8.56332 3.93506C8.36806 4.13032 8.36806 4.4469 8.56332 4.64216L9.27043 3.93506ZM11.8579 7.9367C12.0531 8.13196 12.3697 8.13196 12.565 7.9367C12.7602 7.74144 12.7602 7.42486 12.565 7.22959L11.8579 7.9367ZM2.81197 12.6536L3.42903 10.8024L2.48035 10.4862L1.86329 12.3373L2.81197 12.6536ZM3.94495 9.96762L10.0941 3.8185L9.38696 3.11139L3.23784 9.26052L3.94495 9.96762ZM12.6815 6.40593L6.53238 12.5551L7.23948 13.2622L13.3886 7.11304L12.6815 6.40593ZM5.6976 13.071L3.84644 13.688L4.16266 14.6367L6.01383 14.0197L5.6976 13.071ZM6.53238 12.5551C6.35886 12.7286 6.30453 12.7813 6.24708 12.8247L6.84932 13.623C6.97509 13.5281 7.08484 13.4168 7.23948 13.2622L6.53238 12.5551ZM6.01383 14.0197C6.22131 13.9505 6.36995 13.9021 6.51105 13.8321L6.06635 12.9364C6.0019 12.9684 5.9304 12.9934 5.6976 13.071L6.01383 14.0197ZM6.24708 12.8247C6.19042 12.8674 6.12992 12.9048 6.06635 12.9364L6.51105 13.8321C6.63003 13.773 6.74328 13.703 6.84933 13.623L6.24708 12.8247ZM12.6815 3.8185C13.1591 4.29613 13.3063 4.45264 13.3807 4.60281L14.2767 4.1588C14.1111 3.82451 13.8091 3.53193 13.3886 3.11139L12.6815 3.8185ZM13.3886 7.11304C13.8091 6.6925 14.1111 6.39992 14.2767 6.06564L13.3807 5.62162C13.3063 5.77179 13.1591 5.9283 12.6815 6.40593L13.3886 7.11304ZM13.3807 4.60281C13.5398 4.92379 13.5398 5.30064 13.3807 5.62162L14.2767 6.06564C14.5744 5.46488 14.5744 4.75955 14.2767 4.1588L13.3807 4.60281ZM10.0941 3.8185C10.5717 3.34087 10.7282 3.19371 10.8784 3.11929L10.4344 2.22328C10.1001 2.38893 9.8075 2.69086 9.38696 3.11139L10.0941 3.8185ZM13.3886 3.11139C12.9681 2.69085 12.6755 2.38893 12.3412 2.22328L11.8972 3.11929C12.0474 3.19371 12.2039 3.34087 12.6815 3.8185L13.3886 3.11139ZM10.8784 3.11929C11.1994 2.96024 11.5762 2.96024 11.8972 3.11929L12.3412 2.22328C11.7404 1.92557 11.0351 1.92557 10.4344 2.22328L10.8784 3.11929ZM3.42903 10.8024C3.50663 10.5696 3.53163 10.4981 3.56362 10.4337L2.66795 9.98895C2.59789 10.1301 2.5495 10.2787 2.48035 10.4862L3.42903 10.8024ZM3.23784 9.26052C3.0832 9.41516 2.97189 9.52491 2.87701 9.65067L3.67532 10.2529C3.71866 10.1955 3.77143 10.1411 3.94495 9.96762L3.23784 9.26052ZM3.56362 10.4336C3.59519 10.3701 3.63258 10.3096 3.67532 10.2529L2.87701 9.65068C2.79701 9.75672 2.72702 9.86996 2.66795 9.98895L3.56362 10.4336ZM1.86329 12.3373C1.73231 12.7303 1.62263 13.0577 1.56103 13.3199C1.50117 13.5746 1.46128 13.8621 1.55971 14.1381L2.50162 13.8022C2.50463 13.8107 2.4841 13.7632 2.53451 13.5486C2.58318 13.3415 2.67469 13.0654 2.81197 12.6536L1.86329 12.3373ZM3.84644 13.688C3.4346 13.8253 3.15849 13.9168 2.95136 13.9655C2.73681 14.0159 2.68931 13.9954 2.69775 13.9984L2.36187 14.9403C2.6379 15.0387 2.92538 14.9988 3.18011 14.939C3.44226 14.8774 3.76973 14.7677 4.16266 14.6367L3.84644 13.688ZM1.55971 14.1381C1.69316 14.5124 1.98765 14.8068 2.36187 14.9403L2.69775 13.9984C2.60625 13.9658 2.53425 13.8937 2.50162 13.8022L1.55971 14.1381ZM8.56332 4.64216L11.8579 7.9367L12.565 7.22959L9.27043 3.93506L8.56332 4.64216Z" fill="white" fill-opacity="0.8"/>
</svg>
