<svg width="36" height="30" viewBox="0 0 36 30" fill="none" xmlns="http://www.w3.org/2000/svg">
<g filter="url(#filter0_d_2443_56452)">
<path d="M10.5218 5H5.16016C5.0717 5 5 5.0717 5 5.16016V20.8028C5 20.845 5.01668 20.8855 5.04641 20.9155L8.05632 23.9519C8.0868 23.9826 8.12844 23.9997 8.17174 23.9993L12.9961 23.9486C13.0839 23.9477 13.1546 23.8762 13.1546 23.7884V20.707C13.1546 20.6199 13.085 20.5488 12.9979 20.5469L10.8386 20.5006C10.7515 20.4987 10.6819 20.4276 10.6819 20.3405V5.16016C10.6819 5.0717 10.6102 5 10.5218 5Z" fill="url(#paint0_radial_2443_56452)"/>
<path d="M10.5218 5H5.16016C5.0717 5 5 5.0717 5 5.16016V20.8028C5 20.845 5.01668 20.8855 5.04641 20.9155L8.05632 23.9519C8.0868 23.9826 8.12844 23.9997 8.17174 23.9993L12.9961 23.9486C13.0839 23.9477 13.1546 23.8762 13.1546 23.7884V20.707C13.1546 20.6199 13.085 20.5488 12.9979 20.5469L10.8386 20.5006C10.7515 20.4987 10.6819 20.4276 10.6819 20.3405V5.16016C10.6819 5.0717 10.6102 5 10.5218 5Z" fill="white"/>
<path d="M24.3056 6.80447H18.0608C18.0185 6.80447 17.9779 6.8212 17.9479 6.85101L14.571 10.2059C14.54 10.2368 14.5229 10.2789 14.5238 10.3227L14.572 12.8038C14.5737 12.8911 14.6449 12.9609 14.7321 12.9609H20.0968C20.1853 12.9609 20.257 12.8892 20.257 12.8007V10.6797C20.257 10.5913 20.3287 10.5196 20.4171 10.5196H24.3056C24.3941 10.5196 24.4658 10.4478 24.4658 10.3594V6.96463C24.4658 6.87617 24.3941 6.80447 24.3056 6.80447Z" fill="url(#paint1_radial_2443_56452)"/>
<path d="M24.3056 6.80447H18.0608C18.0185 6.80447 17.9779 6.8212 17.9479 6.85101L14.571 10.2059C14.54 10.2368 14.5229 10.2789 14.5238 10.3227L14.572 12.8038C14.5737 12.8911 14.6449 12.9609 14.7321 12.9609H20.0968C20.1853 12.9609 20.257 12.8892 20.257 12.8007V10.6797C20.257 10.5913 20.3287 10.5196 20.4171 10.5196H24.3056C24.3941 10.5196 24.4658 10.4478 24.4658 10.3594V6.96463C24.4658 6.87617 24.3941 6.80447 24.3056 6.80447Z" fill="white"/>
<path d="M30.9433 10.2076L27.6168 6.85187C27.5867 6.82154 27.545 6.80446 27.5023 6.80449C25.9142 6.80535 25.4121 6.8369 25.3602 6.87877C25.3181 6.92123 25.2865 8.47095 25.297 10.3285L25.3071 13.5433C25.3073 13.6319 25.2356 13.7039 25.1469 13.7039H21.5746C21.4861 13.7039 21.4144 13.7756 21.4144 13.8641V16.622C21.4144 16.7104 21.4861 16.7821 21.5746 16.7821H25.1486C25.2366 16.7821 25.3081 16.8531 25.3087 16.9411L25.359 23.7917C25.3597 23.8782 25.4289 23.9486 25.5153 23.9507L27.501 23.9983C27.5449 23.9994 27.5874 23.9823 27.6184 23.9512L30.9534 20.5971C30.9833 20.5671 31 20.5265 31 20.4842V17.1208C31 17.0742 30.9792 17.0295 30.9439 16.9991C29.7454 15.9635 29.3257 15.5812 29.2428 15.4872C29.1166 15.3173 29.1902 15.2218 30.053 14.4788L30.945 13.6989C30.9799 13.6684 30.9999 13.6242 30.9998 13.5778L30.9897 10.3198C30.9895 10.2778 30.9729 10.2374 30.9433 10.2076Z" fill="url(#paint2_radial_2443_56452)"/>
<path d="M30.9433 10.2076L27.6168 6.85187C27.5867 6.82154 27.545 6.80446 27.5023 6.80449C25.9142 6.80535 25.4121 6.8369 25.3602 6.87877C25.3181 6.92123 25.2865 8.47095 25.297 10.3285L25.3071 13.5433C25.3073 13.6319 25.2356 13.7039 25.1469 13.7039H21.5746C21.4861 13.7039 21.4144 13.7756 21.4144 13.8641V16.622C21.4144 16.7104 21.4861 16.7821 21.5746 16.7821H25.1486C25.2366 16.7821 25.3081 16.8531 25.3087 16.9411L25.359 23.7917C25.3597 23.8782 25.4289 23.9486 25.5153 23.9507L27.501 23.9983C27.5449 23.9994 27.5874 23.9823 27.6184 23.9512L30.9534 20.5971C30.9833 20.5671 31 20.5265 31 20.4842V17.1208C31 17.0742 30.9792 17.0295 30.9439 16.9991C29.7454 15.9635 29.3257 15.5812 29.2428 15.4872C29.1166 15.3173 29.1902 15.2218 30.053 14.4788L30.945 13.6989C30.9799 13.6684 30.9999 13.6242 30.9998 13.5778L30.9897 10.3198C30.9895 10.2778 30.9729 10.2374 30.9433 10.2076Z" fill="white"/>
<path d="M20.0968 17.8436H14.7352C14.6468 17.8436 14.5751 17.9153 14.5751 18.0037V20.4844C14.5751 20.5266 14.5918 20.5671 14.6215 20.5971L17.9472 23.952C17.9776 23.9827 18.0191 23.9998 18.0623 23.9994L24.2566 23.9482C24.3437 23.9475 24.4142 23.8774 24.4154 23.7904L24.4635 20.4474C24.4648 20.358 24.3927 20.2849 24.3033 20.2849H20.4171C20.3287 20.2849 20.257 20.2132 20.257 20.1248V18.0037C20.257 17.9153 20.1853 17.8436 20.0968 17.8436Z" fill="url(#paint3_radial_2443_56452)"/>
<path d="M20.0968 17.8436H14.7352C14.6468 17.8436 14.5751 17.9153 14.5751 18.0037V20.4844C14.5751 20.5266 14.5918 20.5671 14.6215 20.5971L17.9472 23.952C17.9776 23.9827 18.0191 23.9998 18.0623 23.9994L24.2566 23.9482C24.3437 23.9475 24.4142 23.8774 24.4154 23.7904L24.4635 20.4474C24.4648 20.358 24.3927 20.2849 24.3033 20.2849H20.4171C20.3287 20.2849 20.257 20.2132 20.257 20.1248V18.0037C20.257 17.9153 20.1853 17.8436 20.0968 17.8436Z" fill="white"/>
</g>
<defs>
<filter id="filter0_d_2443_56452" x="0.195313" y="0.996094" width="35.6094" height="28.6089" filterUnits="userSpaceOnUse" color-interpolation-filters="sRGB">
<feFlood flood-opacity="0" result="BackgroundImageFix"/>
<feColorMatrix in="SourceAlpha" type="matrix" values="0 0 0 0 0 0 0 0 0 0 0 0 0 0 0 0 0 0 127 0" result="hardAlpha"/>
<feOffset dy="0.800781"/>
<feGaussianBlur stdDeviation="2.40234"/>
<feComposite in2="hardAlpha" operator="out"/>
<feColorMatrix type="matrix" values="0 0 0 0 0 0 0 0 0 0 0 0 0 0 0 0 0 0 0.25 0"/>
<feBlend mode="normal" in2="BackgroundImageFix" result="effect1_dropShadow_2443_56452"/>
<feBlend mode="normal" in="SourceGraphic" in2="effect1_dropShadow_2443_56452" result="shape"/>
</filter>
<radialGradient id="paint0_radial_2443_56452" cx="0" cy="0" r="1" gradientUnits="userSpaceOnUse" gradientTransform="translate(18 14.5) rotate(90) scale(9.5 13)">
<stop stop-color="white"/>
<stop offset="1" stop-color="white" stop-opacity="0.4"/>
</radialGradient>
<radialGradient id="paint1_radial_2443_56452" cx="0" cy="0" r="1" gradientUnits="userSpaceOnUse" gradientTransform="translate(18 14.5) rotate(90) scale(9.5 13)">
<stop stop-color="white"/>
<stop offset="1" stop-color="white" stop-opacity="0.4"/>
</radialGradient>
<radialGradient id="paint2_radial_2443_56452" cx="0" cy="0" r="1" gradientUnits="userSpaceOnUse" gradientTransform="translate(18 14.5) rotate(90) scale(9.5 13)">
<stop stop-color="white"/>
<stop offset="1" stop-color="white" stop-opacity="0.4"/>
</radialGradient>
<radialGradient id="paint3_radial_2443_56452" cx="0" cy="0" r="1" gradientUnits="userSpaceOnUse" gradientTransform="translate(18 14.5) rotate(90) scale(9.5 13)">
<stop stop-color="white"/>
<stop offset="1" stop-color="white" stop-opacity="0.4"/>
</radialGradient>
</defs>
</svg>
