<svg width="12" height="12" viewBox="0 0 12 12" fill="none" xmlns="http://www.w3.org/2000/svg">
<path d="M0.285645 5.89024C0.285645 6.3015 0.625285 6.63688 1.03229 6.63688H5.14431V10.7489C5.14431 11.1547 5.47846 11.4944 5.88975 11.4944C6.30102 11.4944 6.64187 11.1547 6.64187 10.7489V6.63688H10.7484C11.1542 6.63688 11.4939 6.3015 11.4939 5.89024C11.4939 5.47894 11.1542 5.1381 10.7484 5.1381H6.64187V1.03278C6.64187 0.625773 6.30102 0.286133 5.88975 0.286133C5.47846 0.286133 5.14431 0.625773 5.14431 1.03278V5.1381H1.03229C0.625285 5.1381 0.285645 5.47894 0.285645 5.89024Z" fill="white"/>
</svg>
