<svg width="15" height="15" viewBox="0 0 15 15" fill="none" xmlns="http://www.w3.org/2000/svg">
<path d="M8.59905 14.4097C9.11374 14.4097 9.47334 13.9897 9.72111 13.3457L14.1386 1.79888C14.2556 1.50049 14.3189 1.23196 14.3189 1.0079C14.3189 0.531646 14.0209 0.234863 13.5446 0.234863C13.3194 0.234863 13.0509 0.298212 12.7537 0.413926L1.15746 4.85459C0.579295 5.0737 0.142822 5.43329 0.142822 5.95346C0.142822 6.59243 0.62001 6.82894 1.27733 7.02917L4.74997 8.08883C5.21711 8.23483 5.49072 8.22506 5.81724 7.92586L13.2693 1.0162C13.3624 0.931023 13.4737 0.943212 13.5442 1.0095C13.6136 1.08009 13.6227 1.19138 13.5364 1.28446L6.64985 8.75123C6.36219 9.05832 6.33848 9.34266 6.47659 9.81546L7.51116 13.2234C7.71688 13.9081 7.95459 14.4097 8.59905 14.4097Z" fill="white"/>
</svg>
