<svg width="12" height="16" viewBox="0 0 12 16" fill="none" xmlns="http://www.w3.org/2000/svg">
<path d="M3.14286 14.2632L3.14286 5.42105M3.14286 5.42105C4.32632 5.42105 5.28571 4.43137 5.28571 3.21053C5.28571 1.98969 4.32632 1 3.14286 1C1.95939 1 0.999999 1.98969 0.999999 3.21053C1 4.43137 1.95939 5.42105 3.14286 5.42105ZM8.85714 10.5789L8.85714 2.47368M8.85714 10.5789C10.0406 10.5789 11 11.5686 11 12.7895C11 14.0103 10.0406 15 8.85714 15C7.67368 15 6.71429 14.0103 6.71429 12.7895C6.71429 11.5686 7.67368 10.5789 8.85714 10.5789Z" stroke="white" stroke-linecap="round"/>
</svg>
