<svg width="16" height="17" viewBox="0 0 16 17" fill="none" xmlns="http://www.w3.org/2000/svg">
<path d="M9.45919 6.09257C9.50762 5.88708 9.80009 5.88708 9.84852 6.09257L10.5533 9.08304C10.5713 9.15912 10.6319 9.21778 10.7085 9.23322L13.8727 9.87054C14.0867 9.91364 14.0867 10.2196 13.8727 10.2627L10.7085 10.9C10.6319 10.9154 10.5713 10.9741 10.5533 11.0502L9.84852 14.0406C9.80009 14.2461 9.50762 14.2461 9.45919 14.0406L8.75439 11.0502C8.73646 10.9741 8.67584 10.9154 8.59921 10.9L5.43498 10.2627C5.22097 10.2196 5.22097 9.91364 5.43498 9.87054L8.59921 9.23322C8.67584 9.21778 8.73646 9.15912 8.75439 9.08304L9.45919 6.09257Z" fill="white"/>
<path d="M4.84376 3.95927C4.89219 3.75378 5.18466 3.75378 5.23309 3.95927L5.52505 5.19805C5.54298 5.27414 5.6036 5.3328 5.68023 5.34823L6.94961 5.6039C7.16362 5.64701 7.16362 5.95292 6.94961 5.99603L5.68023 6.2517C5.6036 6.26714 5.54298 6.3258 5.52505 6.40188L5.23309 7.64067C5.18466 7.84616 4.89219 7.84616 4.84376 7.64067L4.5518 6.40188C4.53387 6.3258 4.47325 6.26714 4.39662 6.2517L3.12724 5.99603C2.91323 5.95292 2.91323 5.64701 3.12724 5.6039L4.39662 5.34823C4.47325 5.3328 4.53387 5.27414 4.5518 5.19805L4.84376 3.95927Z" fill="white"/>
<path d="M7.72838 1.82597C7.77681 1.62048 8.06928 1.62048 8.11772 1.82597L8.30646 2.62683C8.3244 2.70291 8.38501 2.76158 8.46164 2.77701L9.25731 2.93727C9.47132 2.98038 9.47132 3.28629 9.25731 3.3294L8.46164 3.48965C8.38501 3.50509 8.3244 3.56375 8.30646 3.63984L8.11772 4.4407C8.06928 4.64619 7.77681 4.64619 7.72838 4.4407L7.53963 3.63984C7.5217 3.56375 7.46109 3.50509 7.38446 3.48965L6.58879 3.3294C6.37478 3.28629 6.37478 2.98038 6.58879 2.93727L7.38446 2.77701C7.46109 2.76158 7.5217 2.70291 7.53963 2.62683L7.72838 1.82597Z" fill="white"/>
</svg>
