<svg width="16" height="12" viewBox="0 0 16 12" fill="none" xmlns="http://www.w3.org/2000/svg">
<path d="M7.48209 11.7143H14.2277C15.1197 11.7143 15.4286 11.4159 15.4286 10.8636C15.4286 9.31836 13.6623 7.19323 10.8549 7.19323C8.05198 7.19323 6.28571 9.31836 6.28571 10.8636C6.28571 11.4159 6.59458 11.7143 7.48209 11.7143ZM10.8593 6.1268C12.0378 6.1268 13.0378 4.96283 13.0378 3.4581C13.0378 1.9811 12.0314 0.857147 10.8593 0.857147C9.68286 0.857147 8.67099 2.00189 8.6764 3.46903C8.67833 4.96283 9.67649 6.1268 10.8593 6.1268Z" fill="white"/>
<path d="M1.08138 11.7143H5.47503C4.85056 10.773 5.53706 8.91034 6.85714 7.82808C6.21006 7.39046 5.37068 7.06426 4.31297 7.06426C1.69329 7.06426 0 9.0932 0 10.7654C0 11.3701 0.291479 11.7143 1.08138 11.7143ZM4.31297 6.12953C5.42825 6.12953 6.37104 5.0859 6.37104 3.74854C6.37104 2.43123 5.4213 1.42858 4.31297 1.42858C3.21049 1.42858 2.25011 2.45141 2.25597 3.75863C2.25703 5.0859 3.20251 6.12953 4.31297 6.12953Z" fill="white"/>
</svg>
