<svg width="28" height="28" viewBox="0 0 28 28" fill="none" xmlns="http://www.w3.org/2000/svg">
<path d="M1 23.2659C3.98109 23.4899 6.57906 22.7155 8.97201 20.7523C7.75085 20.5955 6.68681 20.2547 5.7889 19.4947C4.91492 18.7491 4.24448 17.8194 3.88531 16.549H6.10017C6.11215 16.4962 6.12412 16.4434 6.13609 16.3778C4.91492 15.9986 3.87334 15.317 3.09514 14.2306C2.31695 13.1586 1.93533 11.9137 1.89792 10.5505C2.67611 10.7873 3.41839 11.0225 4.17264 11.2449C4.19659 11.1921 4.2325 11.1409 4.25645 11.0881C3.17895 10.1185 2.40075 8.95369 2.11491 7.44806C1.81987 5.97958 2.0275 4.44665 2.70006 3.12798C5.69312 6.95045 9.4509 9.07209 14.0707 9.42569C13.927 8.18087 13.9151 7.02885 14.3101 5.90243C15.675 1.96156 20.2708 0.703939 23.1307 3.53279C23.4539 3.84639 23.7293 3.8992 24.0765 3.76799C25.0223 3.40159 25.9546 3.00958 26.9244 2.61597C26.5532 3.912 25.7511 4.86881 24.8068 5.79843C25.7272 5.53602 26.649 5.26082 27.5589 4.99842C27.5948 5.03842 27.6307 5.06402 27.6667 5.10402C26.9723 5.88963 26.3018 6.71525 25.5491 7.42246C25.142 7.80166 25.0103 8.15527 24.9864 8.73128C24.7709 15.1474 22.3645 20.3315 17.2418 23.5939C12.0234 26.906 6.6509 26.7092 1.36066 23.5539C1.26489 23.4899 1.18108 23.4099 1.0015 23.2659H1Z" fill="white" fill-opacity="0.8"/>
</svg>
