<svg width="181" height="181" viewBox="0 0 181 181" fill="none" xmlns="http://www.w3.org/2000/svg">
<rect width="181" height="181" fill="#E96D49"/>
<path fill-rule="evenodd" clip-rule="evenodd" d="M139.375 96.5714H128.158C128.97 91.3353 128.864 85.9843 127.833 80.76C126.465 73.8299 123.505 67.3125 119.187 61.722C114.87 56.1315 109.312 51.6209 102.952 48.546C96.5927 45.4711 89.6057 43.916 82.5424 44.0035C75.4791 44.091 68.5327 45.8186 62.2514 49.0501C55.97 52.2816 50.5255 56.9285 46.3474 62.6242C42.1693 68.3199 39.3719 74.9086 38.1759 81.8705C37.3384 86.7457 37.3022 91.7106 38.0556 96.5714H35.0534C32.7851 96.5714 30.9463 98.4103 30.9463 100.679C30.9463 102.947 32.7851 104.786 35.0534 104.786H47.7857C49.8272 104.786 51.4821 106.441 51.4821 108.482C51.4821 110.524 49.8272 112.179 47.7857 112.179C45.7442 112.179 44.0893 113.834 44.0893 115.875V116.286C44.0893 118.554 45.9281 120.393 48.1964 120.393H69.9643C72.0058 120.393 73.6607 122.048 73.6607 124.089C73.6607 126.131 72.0058 127.786 69.9643 127.786H55.5893C53.321 127.786 51.4821 129.625 51.4821 131.893C51.4821 134.161 53.321 136 55.5893 136H122.946C125.215 136 127.054 134.161 127.054 131.893C127.054 129.625 125.215 127.786 122.946 127.786H101.179C99.1371 127.786 97.4821 126.131 97.4821 124.089C97.4821 122.048 99.1371 120.393 101.179 120.393H102.411C104.679 120.393 106.518 118.554 106.518 116.286V115.464C106.518 113.65 105.047 112.179 103.232 112.179C101.417 112.179 99.9464 110.708 99.9464 108.893V108.482C99.9464 106.441 101.601 104.786 103.643 104.786H139.375C141.643 104.786 143.482 102.947 143.482 100.679C143.482 98.4103 141.643 96.5714 139.375 96.5714ZM110.625 116.286C110.625 114.017 112.464 112.179 114.732 112.179H123.768C126.036 112.179 127.875 114.017 127.875 116.286C127.875 118.554 126.036 120.393 123.768 120.393H114.732C112.464 120.393 110.625 118.554 110.625 116.286ZM150.054 116.286C150.054 114.017 148.215 112.179 145.946 112.179H136.911C134.642 112.179 132.804 114.017 132.804 116.286C132.804 118.554 134.642 120.393 136.911 120.393H145.946C148.215 120.393 150.054 118.554 150.054 116.286Z" fill="white"/>
</svg>
