<svg width="65" height="51" viewBox="0 0 65 51" fill="none" xmlns="http://www.w3.org/2000/svg">
<path d="M40.6243 7.06906C41.2686 5.32783 43.7314 5.32782 44.3757 7.06906L48.2579 17.5605C48.4605 18.108 48.8921 18.5396 49.4395 18.7422L59.931 22.6243C61.6722 23.2687 61.6722 25.7314 59.931 26.3758L49.4395 30.2579C48.8921 30.4605 48.4605 30.8921 48.2579 31.4396L44.3757 41.931C43.7314 43.6723 41.2686 43.6723 40.6243 41.931L36.7421 31.4396C36.5395 30.8921 36.1079 30.4605 35.5605 30.2579L25.069 26.3758C23.3278 25.7314 23.3278 23.2687 25.069 22.6243L35.5605 18.7422C36.1079 18.5396 36.5395 18.108 36.7421 17.5605L40.6243 7.06906Z" fill="url(#paint0_linear_6271_57550)"/>
<path d="M11.1243 29.069C11.7686 27.3278 14.2314 27.3278 14.8757 29.069L16.192 32.6263C16.3946 33.1738 16.8262 33.6054 17.3737 33.808L20.931 35.1243C22.6722 35.7686 22.6722 38.2314 20.931 38.8757L17.3737 40.192C16.8262 40.3946 16.3946 40.8262 16.192 41.3737L14.8757 44.931C14.2314 46.6722 11.7686 46.6722 11.1243 44.931L9.80797 41.3737C9.6054 40.8262 9.17377 40.3946 8.62634 40.192L5.06901 38.8757C3.32778 38.2314 3.32778 35.7686 5.06901 35.1243L8.62634 33.808C9.17377 33.6054 9.6054 33.1738 9.80797 32.6263L11.1243 29.069Z" fill="url(#paint1_linear_6271_57550)" fill-opacity="0.1"/>
<path d="M16.1274 2.78139C16.2935 1.86806 17.5062 1.65423 17.9746 2.45568L19.5207 5.10091C19.668 5.35288 19.918 5.52794 20.2052 5.58015L23.2197 6.12832C24.133 6.2944 24.3468 7.50708 23.5454 7.97553L20.9002 9.52165C20.6482 9.66893 20.4731 9.91894 20.4209 10.2061L19.8727 13.2206C19.7067 14.1339 18.494 14.3478 18.0255 13.5463L16.4794 10.9011C16.3321 10.6491 16.0821 10.4741 15.795 10.4218L12.7805 9.87367C11.8671 9.70759 11.6533 8.49491 12.4548 8.02646L15.1 6.48034C15.352 6.33306 15.527 6.08305 15.5792 5.7959L16.1274 2.78139Z" fill="url(#paint2_linear_6271_57550)" fill-opacity="0.1"/>
<defs>
<linearGradient id="paint0_linear_6271_57550" x1="42.5" y1="2" x2="42.5" y2="47" gradientUnits="userSpaceOnUse">
<stop stop-color="#73FAFD"/>
<stop offset="1" stop-color="#50B1D7"/>
</linearGradient>
<linearGradient id="paint1_linear_6271_57550" x1="13" y1="24" x2="13" y2="50" gradientUnits="userSpaceOnUse">
<stop stop-color="#73FAFD"/>
<stop offset="1" stop-color="#50B1D7"/>
</linearGradient>
<linearGradient id="paint2_linear_6271_57550" x1="16.6109" y1="0.122533" x2="19.3893" y2="15.8795" gradientUnits="userSpaceOnUse">
<stop stop-color="#73FAFD"/>
<stop offset="1" stop-color="#50B1D7"/>
</linearGradient>
</defs>
</svg>
