<svg width="771" height="775" viewBox="0 0 771 775" fill="none" xmlns="http://www.w3.org/2000/svg">
<path d="M53.6665 230.02C40.6405 233.36 22.9385 248.39 15.2565 262.919C3.90055 283.627 3.39955 302.498 13.2525 322.037L18.7635 333.226L15.5905 337.401C13.7535 339.739 12.2505 342.411 12.2505 343.246C12.2505 344.081 11.2485 345.751 9.91255 346.753C4.56855 351.262 0.560547 368.63 0.560547 387.167C0.560547 408.71 3.90055 421.235 13.0855 433.927C18.9305 441.609 19.2645 442.778 17.2605 446.118C7.90855 460.647 6.73955 463.987 6.73955 476.846C6.73955 496.719 12.9185 512.918 26.2785 526.946C47.6545 549.992 75.2095 552.497 96.5856 533.626C107.942 523.773 113.954 505.737 110.781 491.375C109.612 486.365 109.612 482.691 110.614 481.689C113.453 478.85 245.884 439.939 316.525 421.235C329.217 417.895 341.241 414.388 343.412 413.219C346.752 411.382 346.919 410.714 345.082 407.04C343.913 404.702 342.076 399.024 341.074 394.515C339.404 387.167 339.738 384.495 342.744 374.475C344.581 368.129 345.583 362.284 344.915 361.616C344.247 360.948 338.068 358.944 331.221 357.107C264.421 339.906 182.758 316.86 138.002 302.498L109.278 293.313L110.28 279.452C111.115 266.927 110.781 264.589 107.107 256.406C102.431 246.219 93.4126 236.7 84.5616 232.525C77.3806 229.018 62.1836 227.849 53.6665 230.02ZM77.7146 247.889C87.4006 252.565 95.7505 265.758 95.7505 275.945C95.7505 279.285 94.2476 284.796 92.4106 288.47C88.4025 296.486 88.5695 302.832 93.2456 305.003C97.4206 307.007 122.471 315.357 139.171 320.2C146.018 322.204 157.374 325.544 164.221 327.715C176.245 331.389 189.939 335.397 193.446 336.232C194.448 336.399 200.46 338.069 206.806 339.906C217.16 343.079 242.377 350.093 279.451 360.447C297.654 365.457 302.831 367.461 302.831 369.131C302.831 369.966 300.827 370.133 298.322 369.465C295.65 368.797 287.3 367.294 279.451 366.125C271.602 364.956 258.576 362.618 250.226 361.115C242.043 359.779 224.341 356.606 210.981 354.268C184.428 349.759 165.39 346.085 155.036 343.413C133.493 337.902 127.147 336.065 117.127 332.558C102.097 327.381 90.0726 321.202 79.3846 313.186C74.3745 309.512 70.0326 307.007 69.3645 307.508C67.6945 309.345 84.3946 325.21 95.7505 332.725C109.946 342.077 120.467 346.419 147.521 354.101C173.239 361.449 186.933 364.455 229.351 371.97C245.383 374.809 260.079 377.815 261.916 378.65C265.256 379.986 233.693 380.654 167.728 380.32C136.165 380.153 51.3285 384.829 47.4875 387C40.6405 390.674 97.4206 393.513 188.102 394.014C229.184 394.181 262.751 394.849 262.751 395.517C262.751 397.187 229.351 404.201 210.981 406.372C207.808 406.706 202.13 407.708 198.456 408.71C194.782 409.545 188.102 411.048 183.426 412.05C135.998 422.404 104.936 433.927 88.5695 447.454C77.7146 456.138 68.5295 465.49 69.5315 466.492C70.0326 466.993 75.5435 463.987 81.7225 459.979C101.429 447.287 116.292 441.108 145.016 433.927C154.034 431.756 190.941 424.241 203.466 422.237C208.977 421.235 219.832 419.398 227.681 417.895C244.047 414.889 285.63 407.875 294.982 406.539C303.165 405.37 302.664 408.877 294.314 410.881C291.141 411.716 285.63 413.052 281.956 414.054C278.282 415.056 274.608 416.225 273.606 416.392C267.594 417.895 243.546 424.408 225.176 429.752C213.319 433.092 201.295 436.432 198.456 437.1C195.784 437.935 189.438 439.772 184.762 441.108C179.919 442.611 172.404 444.782 168.062 446.118C163.553 447.454 154.368 450.126 147.521 451.963C114.121 461.482 89.9056 470.5 88.5695 474.341C88.2355 475.343 89.5716 479.852 91.7426 484.194C97.5876 495.717 97.0866 504.902 90.4066 514.922C79.7186 530.787 68.5295 534.127 52.8316 526.278C35.4636 517.761 23.7735 498.89 23.4395 479.184C23.2725 466.659 25.6105 460.814 33.9605 452.965C42.9785 444.615 42.9785 442.444 33.9605 432.758C23.4395 421.736 19.7655 414.054 17.0935 398.356C13.2525 375.477 20.2665 353.099 34.9625 341.075C43.4795 334.061 43.4795 330.22 34.7955 323.039C25.6105 315.524 23.2725 309.679 23.4395 294.983C23.6065 281.623 25.2765 276.78 34.4615 263.921C40.1395 255.905 49.1576 249.058 58.5096 245.885C65.1896 243.547 70.1996 244.048 77.7146 247.889Z" fill="#3F96CB"/>
<path d="M717.248 229.748C730.274 233.088 747.976 248.118 755.658 262.647C767.014 283.355 767.515 302.226 757.662 321.765L752.151 332.954L755.324 337.129C757.161 339.467 758.664 342.139 758.664 342.974C758.664 343.809 759.666 345.479 761.002 346.481C766.346 350.99 770.354 368.358 770.354 386.895C770.354 408.438 767.014 420.963 757.829 433.655C751.984 441.337 751.65 442.506 753.654 445.846C763.006 460.375 764.175 463.715 764.175 476.574C764.175 496.447 757.996 512.646 744.636 526.674C723.26 549.72 695.705 552.225 674.329 533.354C662.973 523.501 656.961 505.465 660.134 491.103C661.303 486.093 661.303 482.419 660.301 481.417C657.462 478.578 525.031 439.667 454.389 420.963C441.698 417.623 429.673 414.116 427.503 412.947C424.163 411.11 423.995 410.442 425.832 406.768C427.001 404.43 428.839 398.752 429.84 394.243C431.51 386.895 431.176 384.223 428.171 374.203C426.333 367.857 425.331 362.012 425.999 361.344C426.667 360.676 432.846 358.672 439.693 356.835C506.493 339.634 588.157 316.588 632.913 302.226L661.637 293.041L660.635 279.18C659.8 266.655 660.134 264.317 663.808 256.134C668.484 245.947 677.502 236.428 686.353 232.253C693.534 228.746 708.731 227.577 717.248 229.748ZM693.2 247.617C683.514 252.293 675.164 265.486 675.164 275.673C675.164 279.013 676.667 284.524 678.504 288.198C682.512 296.214 682.345 302.56 677.669 304.731C673.494 306.735 648.444 315.085 631.743 319.928C624.896 321.932 613.541 325.272 606.694 327.443C594.67 331.117 580.976 335.125 577.469 335.96C576.467 336.127 570.454 337.797 564.109 339.634C553.755 342.807 528.538 349.821 491.464 360.175C473.26 365.185 468.083 367.189 468.083 368.859C468.083 369.694 470.087 369.861 472.592 369.193C475.264 368.525 483.615 367.022 491.464 365.853C499.312 364.684 512.339 362.346 520.689 360.843C528.872 359.507 546.574 356.334 559.934 353.996C586.487 349.487 605.525 345.813 615.879 343.141C637.422 337.63 643.768 335.793 653.788 332.286C668.818 327.109 680.842 320.93 691.53 312.914C696.54 309.24 700.882 306.735 701.55 307.236C703.22 309.073 686.52 324.938 675.164 332.453C660.969 341.805 650.448 346.147 623.394 353.829C597.676 361.177 583.982 364.183 541.564 371.698C525.531 374.537 510.836 377.543 508.999 378.378C505.659 379.714 537.221 380.382 603.187 380.048C634.75 379.881 719.586 384.557 723.427 386.728C730.274 390.402 673.494 393.241 582.812 393.742C541.73 393.909 508.164 394.577 508.164 395.245C508.164 396.915 541.564 403.929 559.934 406.1C563.107 406.434 568.785 407.436 572.458 408.438C576.133 409.273 582.812 410.776 587.489 411.778C634.917 422.132 665.979 433.655 682.345 447.182C693.2 455.866 702.385 465.218 701.383 466.22C700.882 466.721 695.371 463.715 689.192 459.707C669.486 447.015 654.623 440.836 625.899 433.655C616.881 431.484 579.974 423.969 567.449 421.965C561.938 420.963 551.083 419.126 543.234 417.623C526.867 414.617 485.284 407.603 475.932 406.267C467.749 405.098 468.25 408.605 476.6 410.609C479.773 411.444 485.284 412.78 488.958 413.782C492.633 414.784 496.306 415.953 497.309 416.12C503.32 417.623 527.368 424.136 545.738 429.48C557.596 432.82 569.62 436.16 572.458 436.828C575.131 437.663 581.477 439.5 586.152 440.836C590.995 442.339 598.51 444.51 602.853 445.846C607.362 447.182 616.547 449.854 623.394 451.691C656.794 461.21 681.009 470.228 682.345 474.069C682.679 475.071 681.343 479.58 679.172 483.922C673.327 495.445 673.828 504.63 680.508 514.65C691.196 530.515 702.385 533.855 718.083 526.006C735.451 517.489 747.141 498.618 747.475 478.912C747.642 466.387 745.304 460.542 736.954 452.693C727.936 444.343 727.936 442.172 736.954 432.486C747.475 421.464 751.149 413.782 753.821 398.084C757.662 375.205 750.648 352.827 735.952 340.803C727.435 333.789 727.435 329.948 736.119 322.767C745.304 315.252 747.642 309.407 747.475 294.711C747.308 281.351 745.638 276.508 736.453 263.649C730.775 255.633 721.757 248.786 712.405 245.613C705.725 243.275 700.715 243.776 693.2 247.617Z" fill="#C88159"/>
<path d="M359.944 436.599C358.775 441.108 356.437 449.458 354.767 455.47C352.93 461.482 347.586 481.021 342.91 498.89C334.894 528.783 330.051 546.151 323.872 568.195C319.363 583.726 306.003 628.315 304.5 632.49C303.665 634.828 301.16 643.011 298.655 650.86L294.313 665.055H277.112C259.911 665.055 259.744 665.055 250.893 671.234C240.706 678.248 232.189 689.938 229.35 700.626C226.845 710.312 229.684 724.34 236.364 734.861C242.209 743.879 255.736 756.738 264.253 761.08C271.1 764.42 290.138 769.43 296.317 769.43C303.665 769.43 320.198 764.42 326.377 760.245L332.556 756.237L340.572 761.414C357.606 772.269 366.958 774.941 388 774.941C409.042 774.941 418.227 772.436 435.428 761.414L443.444 756.237L452.128 761.08C464.653 768.094 475.842 770.098 489.536 767.76C505.234 765.088 515.755 759.744 527.779 748.722C551.493 726.845 554.499 700.459 535.795 679.584C523.437 665.89 512.248 662.383 486.697 664.721C482.188 665.055 480.518 661.214 471.5 630.82C469.496 623.973 465.989 612.617 463.985 605.77C461.814 598.923 458.975 589.07 457.472 584.06C456.136 579.05 452.629 567.026 449.79 557.34C442.943 533.793 441.273 527.781 432.255 494.715C427.913 479.017 423.404 462.985 422.235 458.81C421.066 454.635 418.728 446.452 417.058 440.44C415.388 434.428 413.885 429.251 413.718 428.917C413.384 428.75 408.541 430.086 402.696 432.09C391.173 436.098 381.654 435.764 370.632 431.255C367.459 429.919 364.119 428.75 363.284 428.75C362.616 428.75 361.113 432.257 359.944 436.599ZM364.787 507.908C361.614 524.441 359.944 532.791 352.93 573.205C341.407 638.335 331.387 669.731 314.353 694.781C310.679 700.125 308.007 705.135 308.508 705.636C310.178 707.139 324.206 692.777 331.554 681.922C343.244 665.055 349.089 650.192 359.276 611.615C364.453 592.41 366.958 579.384 376.477 525.61C377.646 519.598 378.982 514.087 379.65 513.419C380.318 512.584 381.32 551.328 381.821 599.424C382.656 680.085 384.827 724.841 387.833 728.181C391.507 732.022 393.511 692.61 394.179 604.434C394.68 553.833 395.515 512.25 396.35 512.25C398.02 512.25 399.857 521.101 404.7 552.33C408.541 576.712 418.728 620.299 425.742 641.675C433.925 666.892 447.452 689.437 462.315 702.463C469.83 708.976 471.667 708.141 465.989 700.626C454.8 685.763 444.446 663.886 438.601 642.51C432.589 620.466 424.239 579.718 419.73 550.66C418.895 545.65 416.056 528.449 413.217 512.751C410.378 496.886 408.04 482.19 408.04 480.186C408.04 472.003 411.547 480.854 418.06 506.071C421.901 520.6 428.247 544.314 432.422 558.676C436.597 573.038 441.44 590.072 443.277 596.585C458.307 649.19 470.665 685.262 474.172 686.598C475.508 687.099 481.353 685.596 487.198 683.091C499.89 678.081 505.568 678.582 517.258 685.93C525.608 691.274 531.453 701.127 531.62 709.644C531.62 722.002 516.256 741.04 500.558 747.72C491.206 751.728 470.331 752.229 463.484 748.722C460.979 747.386 455.969 743.211 452.295 739.537C448.788 735.696 444.78 732.69 443.611 732.69C442.275 732.69 437.766 736.364 433.424 740.873C423.571 750.893 415.388 755.068 400.358 757.573C391.34 759.076 385.996 759.076 376.978 757.573C361.447 754.901 353.431 751.227 343.077 741.207C338.067 736.531 333.391 732.69 332.556 732.69C331.554 732.69 326.377 736.865 320.866 741.875L311.013 751.06H297.486C285.963 751.06 282.623 750.392 273.605 746.05C261.414 740.205 251.06 729.517 246.718 718.495C241.541 704.634 247.553 691.441 262.583 683.759C273.772 678.081 276.611 678.081 290.472 683.592C297.152 686.264 301.995 687.433 302.997 686.431C305.669 683.759 320.866 637.333 335.562 587.4C338.902 575.877 342.743 563.185 343.912 559.01C345.081 554.835 348.755 541.308 352.095 528.95C355.435 516.592 359.109 503.065 360.445 498.89C361.781 494.715 363.785 488.035 364.954 483.86L367.125 476.345L367.626 483.693C367.96 487.701 366.624 498.723 364.787 507.908Z" fill="#B40827"/>
<path d="M360.647 338.56C359.478 334.051 357.14 325.701 355.47 319.689C353.633 313.677 348.289 294.138 343.613 276.269C335.597 246.376 330.754 229.008 324.575 206.964C320.066 191.433 306.706 146.844 305.203 142.669C304.368 140.331 301.863 132.148 299.358 124.299L295.016 110.104H277.815C260.614 110.104 260.447 110.104 251.596 103.925C241.409 96.9108 232.892 85.2208 230.053 74.5328C227.548 64.8468 230.387 50.8188 237.067 40.2978C242.912 31.2798 256.439 18.4208 264.956 14.0788C271.803 10.7388 290.841 5.72877 297.02 5.72877C304.368 5.72877 320.901 10.7388 327.08 14.9138L333.259 18.9218L341.275 13.7448C358.309 2.88977 367.661 0.217773 388.703 0.217773C409.745 0.217773 418.93 2.72277 436.131 13.7448L444.147 18.9218L452.831 14.0788C465.356 7.06477 476.545 5.06077 490.239 7.39877C505.937 10.0708 516.458 15.4148 528.482 26.4368C552.196 48.3138 555.202 74.6998 536.498 95.5748C524.14 109.269 512.951 112.776 487.4 110.438C482.891 110.104 481.221 113.945 472.203 144.339C470.199 151.186 466.692 162.542 464.688 169.389C462.517 176.236 459.678 186.089 458.175 191.099C456.839 196.109 453.332 208.133 450.493 217.819C443.646 241.366 441.976 247.378 432.958 280.444C428.616 296.142 424.107 312.174 422.938 316.349C421.769 320.524 419.431 328.707 417.761 334.719C416.091 340.731 414.588 345.908 414.421 346.242C414.087 346.409 409.244 345.073 403.399 343.069C391.876 339.061 382.357 339.395 371.335 343.904C368.162 345.24 364.822 346.409 363.987 346.409C363.319 346.409 361.816 342.902 360.647 338.56ZM365.49 267.251C362.317 250.718 360.647 242.368 353.633 201.954C342.11 136.824 332.09 105.428 315.056 80.3778C311.382 75.0338 308.71 70.0238 309.211 69.5228C310.881 68.0198 324.909 82.3818 332.257 93.2368C343.947 110.104 349.792 124.967 359.979 163.544C365.156 182.749 367.661 195.775 377.18 249.549C378.349 255.561 379.685 261.072 380.353 261.74C381.021 262.575 382.023 223.831 382.524 175.735C383.359 95.0738 385.53 50.3178 388.536 46.9778C392.21 43.1368 394.214 82.5488 394.882 170.725C395.383 221.326 396.218 262.909 397.053 262.909C398.723 262.909 400.56 254.058 405.403 222.829C409.244 198.447 419.431 154.86 426.445 133.484C434.628 108.267 448.155 85.7218 463.018 72.6958C470.533 66.1828 472.37 67.0178 466.692 74.5328C455.503 89.3958 445.149 111.273 439.304 132.649C433.292 154.693 424.942 195.441 420.433 224.499C419.598 229.509 416.759 246.71 413.92 262.408C411.081 278.273 408.743 292.969 408.743 294.973C408.743 303.156 412.25 294.305 418.763 269.088C422.604 254.559 428.95 230.845 433.125 216.483C437.3 202.121 442.143 185.087 443.98 178.574C459.01 125.969 471.368 89.8968 474.875 88.5608C476.211 88.0598 482.056 89.5628 487.901 92.0678C500.593 97.0778 506.271 96.5768 517.961 89.2288C526.311 83.8848 532.156 74.0318 532.323 65.5148C532.323 53.1568 516.959 34.1188 501.261 27.4388C491.909 23.4308 471.034 22.9298 464.187 26.4368C461.682 27.7728 456.672 31.9478 452.998 35.6218C449.491 39.4628 445.483 42.4688 444.314 42.4688C442.978 42.4688 438.469 38.7948 434.127 34.2858C424.274 24.2658 416.091 20.0908 401.061 17.5858C392.043 16.0828 386.699 16.0828 377.681 17.5858C362.15 20.2578 354.134 23.9318 343.78 33.9518C338.77 38.6278 334.094 42.4688 333.259 42.4688C332.257 42.4688 327.08 38.2938 321.569 33.2838L311.716 24.0988H298.189C286.666 24.0988 283.326 24.7668 274.308 29.1088C262.117 34.9538 251.763 45.6418 247.421 56.6638C242.244 70.5248 248.256 83.7178 263.286 91.3998C274.475 97.0778 277.314 97.0778 291.175 91.5668C297.855 88.8948 302.698 87.7258 303.7 88.7278C306.372 91.3998 321.569 137.826 336.265 187.759C339.605 199.282 343.446 211.974 344.615 216.149C345.784 220.324 349.458 233.851 352.798 246.209C356.138 258.567 359.812 272.094 361.148 276.269C362.484 280.444 364.488 287.124 365.657 291.299L367.828 298.814L368.329 291.466C368.663 287.458 367.327 276.436 365.49 267.251Z" fill="#0F9D58"/>
</svg>
