<?xml version="1.0" encoding="UTF-8" standalone="no"?>
<!DOCTYPE svg PUBLIC "-//W3C//DTD SVG 1.1//EN" "http://www.w3.org/Graphics/SVG/1.1/DTD/svg11.dtd">
<svg xmlns="http://www.w3.org/2000/svg" version="1.1" viewBox="0.00 0.00 800.00 800.00">
<g stroke-width="2.00" fill="none" stroke-linecap="butt">
<path stroke="#a1e0e4" vector-effect="non-scaling-stroke" d="
  M 423.49 371.52
  C 421.81 370.24 420.66 368.92 418.81 367.92
  Q 403.40 359.60 386.21 365.59
  Q 380.72 367.50 379.28 369.01
  Q 376.75 371.65 373.95 374.06"
/>
<path stroke="#f59087" vector-effect="non-scaling-stroke" d="
  M 417.74 433.71
  Q 416.44 433.89 414.96 434.93"
/>
<path stroke="#f59087" vector-effect="non-scaling-stroke" d="
  M 411.30 436.27
  Q 402.66 438.66 393.74 437.21
  Q 391.73 436.88 388.37 435.79
  Q 385.51 434.86 383.04 434.20"
/>
<path stroke="#ffc18d" vector-effect="non-scaling-stroke" d="
  M 431.32 421.43
  Q 434.96 414.78 436.01 410.75
  Q 440.47 393.64 431.11 379.47"
/>
<path stroke="#94bee9" vector-effect="non-scaling-stroke" d="
  M 367.79 380.80
  Q 363.49 389.37 362.49 398.88
  C 362.25 401.13 362.79 403.18 362.98 405.39
  Q 363.18 407.65 363.98 410.05
  Q 365.37 414.20 367.01 418.20"
/>
<path stroke="#94bee9" vector-effect="non-scaling-stroke" d="
  M 368.05 420.26
  Q 368.33 420.45 368.55 420.93"
/>
<path stroke="#359fce" vector-effect="non-scaling-stroke" d="
  M 393.29 301.81
  Q 393.40 303.20 393.94 304.07
  Q 394.25 304.57 394.36 304.00
  Q 394.74 302.02 394.05 299.97"
/>
<path stroke="#359fce" vector-effect="non-scaling-stroke" d="
  M 415.84 326.44
  Q 414.85 337.03 416.53 330.18"
/>
</g>
<path fill="#42c1c9" d="
  M 423.49 371.52
  C 421.81 370.24 420.66 368.92 418.81 367.92
  Q 403.40 359.60 386.21 365.59
  Q 380.72 367.50 379.28 369.01
  Q 376.75 371.65 373.95 374.06
  L 378.30 369.28
  A 2.36 2.35 57.2 0 0 378.80 366.94
  C 377.79 363.85 376.67 360.76 375.84 357.59
  Q 354.71 276.63 329.51 193.35
  Q 327.42 186.43 325.31 180.41
  Q 324.77 178.88 323.17 179.14
  C 315.30 180.45 305.22 180.89 297.37 178.38
  C 288.68 175.60 281.20 168.00 276.77 160.47
  C 270.50 149.82 271.66 133.74 277.90 123.58
  Q 283.62 114.28 293.57 106.77
  C 305.36 97.89 317.76 95.31 332.57 95.98
  C 340.85 96.35 347.85 100.19 354.50 104.74
  Q 354.98 105.07 355.55 105.05
  Q 357.61 104.99 359.24 103.58
  Q 368.42 95.56 381.27 92.47
  C 403.26 87.18 424.50 89.95 442.05 104.40
  Q 443.66 105.73 445.42 104.64
  C 451.34 100.98 458.14 96.99 465.19 96.19
  Q 491.12 93.25 510.44 109.24
  C 514.14 112.31 517.03 116.00 519.77 119.79
  C 526.15 128.64 529.72 138.98 527.40 149.68
  Q 523.47 167.69 506.67 176.59
  C 501.59 179.27 493.72 180.90 488.23 180.67
  Q 483.66 180.47 478.19 179.02
  C 475.80 178.38 474.73 181.08 474.19 182.76
  Q 457.04 236.48 441.55 293.34
  Q 438.92 303.00 436.17 312.61
  Q 428.46 339.53 421.24 367.98
  Q 421.11 368.46 421.42 368.85
  L 423.49 371.52
  Z
  M 393.29 301.81
  Q 393.40 303.20 393.94 304.07
  Q 394.25 304.57 394.36 304.00
  Q 394.74 302.02 394.05 299.97
  Q 394.34 269.53 394.05 239.00
  Q 393.54 185.09 398.41 132.75
  Q 398.72 129.34 400.31 126.19
  Q 400.64 125.55 400.79 126.26
  Q 401.47 129.37 401.79 132.76
  Q 403.62 152.13 404.18 162.17
  C 405.06 178.04 405.97 199.21 406.00 217.74
  Q 406.06 257.26 405.89 297.70
  Q 405.88 299.82 406.28 302.19
  Q 406.62 304.28 407.40 302.31
  Q 407.98 300.82 408.21 299.32
  Q 412.05 273.74 415.79 252.34
  Q 420.09 227.69 429.96 196.50
  C 434.98 180.63 442.31 165.40 454.36 153.27
  C 457.19 150.42 460.48 148.01 463.51 145.32
  Q 464.43 144.50 464.98 144.68
  Q 466.31 145.12 465.52 146.28
  Q 461.18 152.65 456.23 159.47
  Q 453.09 163.79 448.72 173.80
  Q 442.43 188.20 437.77 207.04
  Q 433.32 225.04 429.47 246.75
  Q 424.76 273.26 420.24 299.76
  Q 418.30 311.16 416.24 322.55
  Q 415.87 324.62 415.84 326.44
  Q 414.85 337.03 416.53 330.18
  Q 422.48 310.91 427.54 291.65
  C 430.43 280.65 433.48 270.16 436.29 259.64
  Q 439.05 249.32 441.79 240.39
  Q 451.73 207.98 462.03 174.89
  C 463.05 171.63 464.52 168.54 465.56 165.37
  C 466.83 161.47 469.24 159.83 473.27 161.40
  Q 476.18 162.52 479.24 163.97
  Q 492.47 170.23 504.03 161.43
  Q 505.37 160.41 506.64 159.04
  C 508.85 156.68 511.26 154.84 512.51 151.77
  Q 514.68 146.41 513.88 141.50
  C 512.57 133.47 507.51 125.22 501.21 119.98
  Q 487.30 108.40 469.27 109.86
  Q 459.89 110.62 453.98 116.66
  C 451.08 119.63 448.89 123.01 444.98 125.07
  Q 444.53 125.31 444.06 125.12
  Q 442.12 124.35 440.62 122.94
  C 435.62 118.24 430.79 112.69 424.76 109.57
  C 411.45 102.71 394.49 102.85 380.54 107.51
  Q 370.57 110.84 361.64 121.13
  Q 359.51 123.59 356.83 125.10
  Q 356.21 125.44 355.56 125.16
  Q 351.56 123.44 349.04 120.06
  C 341.59 110.06 331.58 108.58 319.85 110.32
  C 304.12 112.64 288.36 126.61 286.01 142.58
  C 284.88 150.27 291.23 158.01 297.39 162.05
  Q 302.63 165.47 307.78 166.40
  C 314.47 167.60 321.01 163.66 326.94 161.32
  C 332.48 159.13 334.38 164.21 335.92 168.20
  Q 341.58 182.90 348.07 204.74
  Q 363.43 256.43 373.98 295.26
  Q 377.53 308.36 381.00 321.48
  Q 382.36 326.60 384.34 331.78
  Q 384.75 332.84 384.88 331.71
  Q 385.05 330.21 384.68 328.88
  Q 383.70 325.38 383.40 322.17
  C 382.97 317.51 382.19 313.11 381.41 308.51
  Q 376.77 281.12 372.00 253.76
  Q 370.05 242.56 367.84 231.09
  C 365.68 219.83 362.79 208.82 359.96 198.04
  Q 355.92 182.62 348.89 168.38
  C 345.29 161.09 340.29 153.90 335.50 146.99
  Q 334.84 146.05 335.14 145.33
  A 0.69 0.69 0.0 0 1 336.14 145.01
  Q 339.81 147.35 343.45 150.82
  Q 358.72 165.34 366.55 185.84
  Q 370.04 194.96 373.78 208.12
  Q 380.78 232.69 384.18 250.24
  Q 387.30 266.30 391.17 292.43
  C 391.64 295.54 392.57 298.69 393.29 301.81
  Z"
/>
<path fill="#ff831b" d="
  M 431.32 421.43
  Q 434.96 414.78 436.01 410.75
  Q 440.47 393.64 431.11 379.47
  Q 498.67 361.66 522.74 354.72
  C 540.90 349.49 559.42 344.29 577.86 338.65
  Q 592.00 334.32 607.40 329.94
  C 611.87 328.66 616.33 327.10 620.70 325.66
  A 1.35 1.35 0.0 0 0 621.62 324.21
  Q 620.62 316.24 620.89 307.69
  C 621.21 297.30 626.75 287.84 634.67 281.36
  C 649.42 269.30 667.14 270.23 681.87 281.30
  C 698.53 293.82 707.07 312.73 704.84 333.63
  C 704.06 340.94 700.60 347.69 696.58 353.81
  C 695.34 355.69 695.65 357.81 697.03 359.48
  Q 703.72 367.60 707.71 378.40
  C 709.69 383.76 709.84 388.46 710.07 394.01
  Q 710.57 405.89 709.65 413.37
  Q 708.70 421.19 704.02 430.95
  C 701.87 435.43 698.63 439.27 696.12 443.61
  A 2.63 2.63 0.0 0 0 696.26 446.46
  C 699.17 450.52 701.86 454.56 703.21 459.41
  C 708.97 480.13 701.75 502.62 685.97 516.18
  Q 681.70 519.85 673.81 524.06
  C 653.19 535.03 629.76 522.36 622.49 501.82
  Q 620.99 497.60 620.86 492.35
  Q 620.65 484.18 621.95 477.48
  A 1.95 1.95 0.0 0 0 620.63 475.25
  C 600.52 468.88 580.41 462.49 560.14 456.74
  Q 510.39 442.65 460.51 429.01
  Q 445.75 424.98 431.32 421.43
  Z
  M 655.13 335.88
  C 655.63 339.97 645.77 348.42 642.81 350.66
  C 627.57 362.21 610.51 369.60 592.12 374.49
  C 578.49 378.11 564.94 381.84 550.94 384.46
  Q 530.27 388.33 508.96 391.43
  C 505.75 391.89 502.48 392.74 499.30 393.52
  Q 498.84 393.63 498.37 393.91
  Q 497.07 394.69 498.58 394.80
  Q 506.00 395.33 513.02 394.50
  Q 517.01 394.02 521.63 393.99
  Q 551.21 393.79 579.70 393.93
  C 590.36 393.98 601.05 394.66 611.91 394.87
  Q 622.68 395.08 631.84 395.76
  Q 646.26 396.83 660.68 397.92
  C 665.15 398.26 669.42 399.25 673.76 400.36
  Q 674.96 400.67 673.80 401.12
  C 672.98 401.45 671.89 401.85 671.02 401.93
  Q 635.26 405.38 615.73 405.71
  Q 596.83 406.04 577.59 406.25
  C 570.12 406.34 562.69 407.08 555.16 407.00
  Q 529.80 406.74 506.43 406.89
  C 503.85 406.90 501.64 406.23 499.12 406.80
  A 0.31 0.30 1.3 0 0 498.89 407.01
  L 498.78 407.38
  Q 498.74 407.51 498.87 407.54
  C 501.44 408.11 503.84 408.81 506.46 409.20
  Q 535.72 413.50 547.49 415.66
  Q 568.01 419.42 598.90 428.25
  Q 608.29 430.93 620.04 436.14
  Q 639.47 444.77 651.96 459.74
  C 653.31 461.35 654.37 463.28 655.36 465.11
  Q 656.49 467.21 654.58 465.78
  Q 648.92 461.55 643.02 457.63
  Q 629.50 448.63 613.48 443.66
  Q 593.25 437.38 564.02 431.80
  Q 537.67 426.78 512.75 422.63
  Q 499.25 420.38 486.72 418.00
  C 482.36 417.18 477.92 416.64 473.64 416.28
  Q 465.35 415.59 473.37 417.79
  C 507.09 427.05 539.88 435.74 575.03 446.39
  Q 599.44 453.78 618.20 459.62
  C 623.39 461.24 628.56 463.21 633.77 464.93
  Q 642.26 467.74 638.07 476.70
  C 635.75 481.64 633.10 487.05 634.57 492.67
  C 637.66 504.55 647.62 516.39 661.33 513.75
  Q 667.33 512.60 672.07 509.00
  C 686.86 497.77 694.76 482.13 689.84 463.35
  C 688.34 457.64 683.46 453.62 678.88 450.02
  Q 673.27 445.61 678.39 440.25
  C 683.07 435.37 688.87 430.53 691.65 424.26
  C 695.97 414.50 698.01 403.85 696.24 393.34
  C 694.92 385.49 693.36 377.32 688.38 371.28
  Q 684.38 366.44 678.64 360.99
  Q 673.30 355.93 678.65 351.02
  C 684.02 346.09 689.11 343.19 690.48 335.46
  Q 693.74 317.22 682.53 301.78
  C 675.90 292.63 664.40 285.12 652.93 287.25
  C 642.46 289.20 636.41 299.20 634.27 309.08
  C 633.06 314.63 635.66 319.30 637.93 324.06
  Q 640.12 328.64 638.68 332.59
  A 1.68 1.65 85.5 0 1 637.95 333.46
  Q 633.90 335.81 630.06 337.30
  Q 620.01 341.20 608.59 344.57
  Q 593.50 349.03 593.44 349.05
  Q 538.21 365.99 482.52 380.61
  C 478.41 381.69 474.59 382.96 470.22 383.77
  Q 468.68 384.06 467.56 384.95
  Q 466.11 386.10 467.94 385.79
  Q 482.07 383.40 495.45 381.31
  C 508.36 379.29 521.89 376.26 535.20 374.17
  C 549.29 371.95 562.18 369.65 575.48 366.93
  Q 586.63 364.65 602.35 360.44
  C 608.64 358.75 614.55 356.76 620.66 354.64
  C 632.12 350.66 644.03 343.32 654.30 335.53
  Q 655.02 334.98 655.13 335.88
  Z"
/>
<path fill="#287cd3" d="
  M 367.79 380.80
  Q 363.49 389.37 362.49 398.88
  C 362.25 401.13 362.79 403.18 362.98 405.39
  Q 363.18 407.65 363.98 410.05
  Q 365.37 414.20 367.01 418.20
  Q 365.69 418.13 366.23 419.30
  Q 366.46 419.81 366.98 420.02
  Q 367.50 420.22 368.05 420.26
  Q 368.33 420.45 368.55 420.93
  L 367.85 421.46
  Q 367.46 421.76 366.97 421.80
  Q 363.70 422.06 362.49 422.38
  Q 341.50 427.81 320.50 433.80
  C 312.07 436.21 303.41 438.14 295.09 440.53
  Q 263.67 449.55 231.47 458.78
  Q 208.97 465.23 188.55 471.87
  Q 183.50 473.51 178.45 475.34
  Q 177.79 475.58 177.89 476.27
  Q 178.21 478.48 178.59 480.61
  C 180.42 490.87 179.21 502.18 173.27 510.77
  Q 166.18 521.03 154.36 525.58
  C 150.88 526.92 147.26 527.13 143.57 527.29
  C 136.04 527.61 129.86 526.14 123.60 522.18
  C 117.96 518.61 112.87 514.99 108.83 509.62
  C 103.40 502.41 98.24 494.84 96.76 485.71
  Q 95.38 477.22 95.82 466.85
  C 96.14 459.42 99.36 452.78 104.14 447.25
  Q 105.89 445.23 104.41 443.02
  C 101.07 438.03 97.19 433.37 94.96 427.82
  C 92.59 421.92 90.64 415.03 90.09 408.64
  Q 89.10 396.97 90.61 387.67
  Q 93.31 371.18 104.63 357.68
  A 1.66 1.66 0.0 0 0 104.77 355.74
  Q 102.21 351.57 99.47 346.68
  C 95.44 339.50 94.59 328.73 95.73 320.24
  C 98.37 300.61 111.37 282.67 130.33 275.17
  Q 133.61 273.87 139.22 273.38
  C 149.76 272.46 159.59 275.48 167.08 282.91
  Q 183.83 299.53 177.51 321.98
  Q 177.19 323.12 177.73 324.20
  Q 178.51 325.78 180.03 326.26
  Q 213.38 337.03 256.65 349.35
  Q 309.18 364.30 363.04 378.39
  Q 363.50 378.51 363.81 378.87
  C 364.87 380.11 365.70 381.60 367.79 380.80
  Z
  M 145.22 464.43
  Q 146.50 461.41 148.80 458.79
  Q 160.01 445.96 175.94 438.42
  Q 188.32 432.56 200.26 429.11
  Q 218.80 423.75 239.25 419.00
  C 250.85 416.31 265.24 414.48 278.24 412.05
  C 286.32 410.54 294.44 409.29 302.65 407.23
  Q 305.96 406.39 302.56 406.08
  Q 300.86 405.92 299.20 405.93
  Q 254.30 406.17 208.96 405.98
  C 195.32 405.93 181.70 405.30 168.15 404.65
  C 156.09 404.06 144.64 402.72 132.60 401.82
  A 0.55 0.54 -63.8 0 1 132.28 400.87
  Q 134.90 398.54 138.75 398.41
  C 148.48 398.07 157.57 397.73 167.72 396.80
  Q 185.64 395.16 197.06 395.10
  Q 226.92 394.95 254.01 394.96
  C 259.42 394.96 264.74 394.63 270.09 394.30
  C 278.78 393.77 287.35 394.37 296.00 395.04
  Q 299.19 395.29 300.65 394.75
  Q 303.92 393.55 300.50 392.86
  Q 293.83 391.50 286.87 390.40
  C 273.27 388.25 259.70 385.72 246.14 383.28
  Q 229.51 380.30 204.50 373.12
  Q 190.89 369.21 180.44 364.60
  Q 167.46 358.87 155.80 348.90
  C 151.88 345.54 148.96 341.42 145.29 337.69
  Q 144.59 336.98 145.21 336.21
  A 0.69 0.68 -42.8 0 1 146.31 336.25
  C 147.31 337.69 148.77 337.95 149.98 339.16
  Q 151.87 341.07 154.73 342.72
  Q 164.21 348.18 172.56 352.18
  C 178.09 354.83 185.07 357.23 190.03 358.69
  C 203.77 362.76 219.75 366.72 235.02 369.53
  Q 259.53 374.05 278.55 377.29
  Q 286.81 378.69 293.52 379.98
  Q 301.74 381.56 308.57 382.62
  Q 318.25 384.13 328.00 385.71
  Q 330.48 386.11 332.87 385.62
  A 0.43 0.43 0.0 0 0 333.15 384.96
  Q 332.95 384.65 332.59 384.53
  Q 325.52 382.24 319.39 380.80
  C 312.27 379.13 305.46 376.71 298.48 374.81
  Q 271.67 367.51 246.25 360.33
  C 224.56 354.20 203.03 347.36 181.50 340.69
  Q 177.12 339.33 165.21 335.09
  Q 162.71 334.20 161.13 332.46
  Q 160.86 332.16 160.84 331.75
  Q 160.62 326.81 162.65 323.30
  C 166.11 317.33 167.47 310.86 165.26 304.24
  Q 160.76 290.81 147.73 286.89
  C 142.83 285.42 137.25 286.28 132.98 288.63
  Q 112.67 299.81 108.86 322.00
  Q 108.10 326.44 108.57 330.70
  C 108.99 334.54 109.71 340.08 112.53 342.98
  Q 117.01 347.60 121.92 352.39
  Q 126.54 356.89 121.00 361.13
  C 103.90 374.22 100.04 395.61 104.81 415.71
  C 107.12 425.45 113.12 433.25 120.62 439.38
  C 123.52 441.75 126.00 445.43 122.02 448.53
  C 117.99 451.67 113.51 454.82 111.42 459.65
  Q 108.67 466.02 108.51 470.97
  Q 108.34 476.40 110.06 483.81
  C 112.29 493.45 118.46 501.05 126.27 507.75
  Q 130.47 511.35 135.19 512.99
  C 140.44 514.81 148.01 515.27 152.83 511.96
  C 159.79 507.19 167.42 497.97 166.65 488.94
  C 166.37 485.68 165.80 481.84 163.97 479.09
  C 162.11 476.30 160.18 473.37 161.10 469.86
  C 161.87 466.94 165.48 465.52 168.07 464.58
  Q 187.82 457.42 207.77 451.80
  Q 217.37 449.10 226.99 446.26
  Q 236.64 443.42 246.31 440.64
  Q 275.97 432.12 312.02 422.12
  C 318.61 420.29 325.56 418.92 331.59 416.81
  Q 333.22 416.24 331.67 415.47
  Q 330.51 414.89 328.76 415.12
  Q 315.88 416.86 304.24 418.97
  Q 269.68 425.21 235.38 431.40
  C 224.03 433.44 212.58 436.10 201.08 439.01
  C 188.26 442.25 173.75 446.95 162.48 453.88
  Q 153.92 459.15 145.60 464.74
  A 0.26 0.25 -5.5 0 1 145.22 464.43
  Z"
/>
<path fill="#287cd3" d="
  M 394.05 299.97
  Q 394.74 302.02 394.36 304.00
  Q 394.25 304.57 393.94 304.07
  Q 393.40 303.20 393.29 301.81
  Q 393.99 302.65 394.05 299.97
  Z"
/>
<path fill="#287cd3" d="
  M 415.84 326.44
  Q 415.66 329.49 416.53 330.18
  Q 414.85 337.03 415.84 326.44
  Z"
/>
<path fill="#ffffff" d="
  M 423.49 371.52
  L 431.11 379.47
  Q 440.47 393.64 436.01 410.75
  Q 434.96 414.78 431.32 421.43
  Q 425.65 427.03 420.80 431.55
  Q 419.71 432.57 417.74 433.71
  Q 416.44 433.89 414.96 434.93
  L 411.30 436.27
  Q 402.66 438.66 393.74 437.21
  Q 391.73 436.88 388.37 435.79
  Q 385.51 434.86 383.04 434.20
  Q 380.34 432.70 378.79 431.20
  Q 373.59 426.16 368.55 420.93
  Q 368.33 420.45 368.05 420.26
  L 367.01 418.20
  Q 365.37 414.20 363.98 410.05
  Q 363.18 407.65 362.98 405.39
  C 362.79 403.18 362.25 401.13 362.49 398.88
  Q 363.49 389.37 367.79 380.80
  L 373.95 374.06
  Q 376.75 371.65 379.28 369.01
  Q 380.72 367.50 386.21 365.59
  Q 403.40 359.60 418.81 367.92
  C 420.66 368.92 421.81 370.24 423.49 371.52
  Z
  M 422.27 400.36
  A 22.33 22.33 0.0 0 0 399.94 378.03
  A 22.33 22.33 0.0 0 0 377.61 400.36
  A 22.33 22.33 0.0 0 0 399.94 422.69
  A 22.33 22.33 0.0 0 0 422.27 400.36
  Z"
/>
<path fill="#eb210e" d="
  M 417.74 433.71
  L 420.18 434.11
  Q 420.66 434.19 420.82 434.65
  Q 422.72 440.17 423.83 445.98
  C 424.87 451.45 426.81 456.65 428.02 462.07
  C 429.37 468.09 431.79 474.95 433.13 479.81
  Q 449.59 539.47 460.96 576.71
  Q 466.59 595.18 469.26 604.16
  C 470.91 609.72 472.87 615.03 474.71 620.44
  A 2.54 2.54 0.0 0 0 477.50 622.14
  C 486.89 620.68 495.45 619.72 504.50 623.49
  Q 511.80 626.53 517.56 632.86
  Q 524.85 640.89 527.21 651.87
  C 528.56 658.16 527.12 664.79 524.96 670.58
  Q 523.48 674.54 520.47 678.86
  Q 512.55 690.21 500.46 697.44
  C 492.90 701.97 484.21 703.57 475.57 704.56
  C 465.38 705.73 454.68 701.69 446.69 695.55
  C 444.70 694.02 442.32 695.27 440.62 696.56
  Q 419.28 712.84 390.99 709.65
  Q 372.65 707.58 358.96 696.24
  Q 355.50 693.38 352.07 696.35
  C 346.01 701.62 340.16 702.98 332.53 704.35
  Q 326.76 705.39 321.84 704.63
  C 312.28 703.16 303.28 700.42 295.04 694.52
  Q 285.98 688.02 279.57 678.51
  C 272.26 667.65 270.06 653.35 276.55 641.84
  Q 284.08 628.48 298.53 622.79
  C 307.25 619.36 314.93 620.95 323.70 622.89
  A 1.64 1.64 0.0 0 0 325.62 621.76
  C 326.61 618.53 327.39 615.31 328.49 612.10
  Q 330.24 607.06 331.74 601.94
  C 333.92 594.55 336.35 587.51 338.52 580.29
  Q 350.81 539.31 353.73 528.18
  Q 360.06 504.08 365.54 485.25
  Q 366.07 483.44 367.15 481.82
  Q 367.43 481.40 367.42 480.90
  Q 367.33 477.57 368.55 474.08
  Q 368.63 473.87 368.78 473.70
  Q 368.87 473.60 369.01 473.59
  Q 369.25 473.59 369.24 473.35
  C 369.14 470.60 370.43 468.28 370.85 465.61
  Q 371.86 459.35 373.93 454.54
  Q 375.36 451.22 375.91 447.61
  Q 376.84 441.57 378.35 436.38
  Q 379.08 433.87 383.04 434.20
  Q 385.51 434.86 388.37 435.79
  Q 391.73 436.88 393.74 437.21
  Q 402.66 438.66 411.30 436.27
  Q 412.96 437.23 414.96 434.93
  Q 416.44 433.89 417.74 433.71
  Z
  M 463.26 654.49
  C 450.48 645.04 440.71 630.70 434.97 616.38
  Q 432.20 609.47 429.44 600.52
  Q 415.62 555.71 410.47 509.83
  Q 410.03 505.86 407.64 496.41
  Q 407.53 495.97 407.30 495.64
  Q 406.88 495.03 406.78 494.98
  Q 405.09 494.17 405.05 496.05
  Q 404.97 501.00 404.87 505.86
  Q 404.76 511.08 404.97 515.93
  C 405.67 532.43 406.47 548.42 405.77 565.24
  Q 404.83 587.68 405.10 608.67
  C 405.19 615.09 405.00 622.03 404.61 628.49
  Q 403.57 645.94 400.80 671.19
  Q 400.60 673.04 399.89 671.32
  Q 399.36 670.05 399.19 668.74
  C 396.97 651.87 396.96 635.63 395.93 618.45
  Q 394.89 601.15 394.97 590.71
  C 395.15 568.37 394.62 546.24 395.13 524.94
  Q 395.24 520.49 395.68 516.12
  Q 396.10 511.93 396.12 507.23
  Q 396.13 506.76 395.87 506.36
  Q 395.27 505.44 395.30 504.34
  Q 395.50 498.78 394.30 494.02
  Q 394.14 493.37 393.68 493.86
  Q 392.83 494.75 392.64 496.00
  Q 390.58 509.68 388.24 522.87
  Q 386.41 533.20 385.04 542.63
  Q 383.53 553.01 380.86 564.04
  C 375.87 584.67 370.80 605.30 361.55 624.20
  Q 354.15 639.31 341.29 651.27
  Q 339.10 653.30 336.69 654.06
  Q 335.69 654.37 336.31 653.53
  C 342.86 644.61 349.28 635.07 353.32 624.68
  Q 358.79 610.66 363.02 593.64
  Q 365.88 582.14 367.39 574.21
  Q 372.79 545.93 377.91 519.29
  Q 378.72 515.06 379.75 510.12
  Q 380.63 505.84 381.26 500.92
  Q 381.95 495.53 383.33 489.06
  Q 385.01 481.21 385.72 469.97
  C 385.86 467.78 385.44 465.69 385.03 463.57
  Q 384.72 461.94 384.33 463.56
  Q 380.81 478.19 376.17 494.36
  Q 374.12 501.53 372.20 509.60
  Q 370.45 516.90 368.38 524.11
  Q 360.15 552.70 346.35 598.22
  Q 339.19 621.82 333.02 638.18
  A 1.53 1.53 0.0 0 1 331.56 639.17
  Q 328.10 639.10 324.89 637.70
  Q 319.11 635.19 314.61 634.35
  Q 302.80 632.14 293.97 639.85
  C 285.50 647.25 283.15 658.97 288.83 668.92
  Q 297.05 683.29 312.26 688.80
  C 318.73 691.14 325.36 691.47 332.18 691.15
  C 337.66 690.90 341.22 689.56 345.01 685.59
  Q 348.78 681.65 352.34 678.27
  C 356.12 674.69 360.21 678.50 362.74 681.46
  C 368.92 688.69 376.67 693.42 386.58 695.46
  C 404.89 699.24 425.92 696.46 437.51 681.43
  Q 439.75 678.53 443.50 676.95
  C 445.01 676.32 446.56 677.13 447.61 678.18
  C 451.91 682.50 456.83 688.92 463.06 690.23
  C 471.50 692.00 482.66 691.92 490.66 688.17
  C 498.68 684.40 505.28 678.48 510.23 671.30
  C 516.51 662.20 515.96 648.36 507.13 640.89
  Q 501.32 635.99 493.10 633.78
  C 488.68 632.59 484.27 633.77 480.31 635.52
  C 476.38 637.25 474.29 639.13 469.59 639.11
  A 2.49 2.48 -12.2 0 1 467.35 637.67
  C 461.47 624.76 457.49 611.02 453.54 597.62
  Q 445.97 571.95 438.12 545.46
  Q 435.27 535.87 432.75 526.05
  Q 426.23 500.61 419.35 476.64
  Q 418.29 472.93 416.00 468.14
  A 0.35 0.34 51.6 0 0 415.42 468.07
  C 413.50 470.43 415.30 478.33 415.97 481.39
  Q 416.69 484.68 417.15 488.16
  Q 417.57 491.40 418.20 495.01
  Q 420.68 509.24 423.76 524.68
  Q 424.75 529.63 425.53 534.84
  Q 426.26 539.63 427.22 544.99
  Q 431.08 566.30 434.88 583.20
  C 437.39 594.30 440.35 605.32 444.15 616.77
  C 447.50 626.86 451.94 635.47 457.86 644.61
  Q 460.73 649.04 463.81 653.98
  Q 464.87 655.68 463.26 654.49
  Z"
/>
</svg>
