<svg width="16" height="16" viewBox="0 0 16 16" fill="none" xmlns="http://www.w3.org/2000/svg">
<path d="M6.7429 3.49809H15.3602C15.6944 3.49809 15.9619 3.22648 15.9619 2.88912C15.9619 2.55363 15.6956 2.28564 15.3602 2.28564H6.7429C6.40313 2.28564 6.14118 2.55604 6.14118 2.88912C6.14118 3.22287 6.40433 3.49809 6.7429 3.49809ZM6.7429 7.00823H15.3602C15.6944 7.00823 15.9619 6.73542 15.9619 6.39805C15.9619 6.06256 15.6956 5.79457 15.3602 5.79457H6.7429C6.40313 5.79457 6.14118 6.06618 6.14118 6.39805C6.14118 6.733 6.40433 7.00823 6.7429 7.00823ZM6.7429 10.5196H15.3602C15.6944 10.5196 15.9619 10.2412 15.9619 9.90942C15.9619 9.57387 15.6956 9.30593 15.3602 9.30593H6.7429C6.40313 9.30593 6.14118 9.57633 6.14118 9.90942C6.14118 10.2376 6.40433 10.5196 6.7429 10.5196ZM6.7429 14.023H11.7972C12.1315 14.023 12.4057 13.7502 12.4057 13.4195C12.4057 13.0828 12.1327 12.8094 11.7972 12.8094H6.7429C6.40313 12.8094 6.14118 13.0864 6.14118 13.4195C6.14118 13.7478 6.40433 14.023 6.7429 14.023Z" fill="white"/>
<path d="M1.09959 10.3409L3.41977 8.79227C3.83534 8.50999 3.82075 7.91426 3.41977 7.63555L1.09959 6.05774C0.562271 5.69385 -0.0054516 5.89649 3.95183e-05 6.54028V9.86507C-0.0054516 10.4888 0.583566 10.678 1.09959 10.3409Z" fill="white"/>
</svg>
