<svg width="16" height="16" viewBox="0 0 16 16" fill="none" xmlns="http://www.w3.org/2000/svg">
<path d="M2.48678 14.9699L2.71377 14.5244H2.71377L2.48678 14.9699ZM1.03006 13.5131L1.47556 13.2861H1.47556L1.03006 13.5131ZM14.9701 13.5131L14.5246 13.2861L14.9701 13.5131ZM13.5134 14.9699L13.2864 14.5244L13.5134 14.9699ZM13.5134 1.02982L13.2864 1.47532V1.47532L13.5134 1.02982ZM15.3014 3.99984L15.8005 3.96936L15.3014 3.99984ZM14.9701 2.48654L14.5246 2.71353V2.71353L14.9701 2.48654ZM2.48678 1.02982L2.71377 1.47532H2.71377L2.48678 1.02982ZM1.03006 2.48654L1.47556 2.71353L1.47556 2.71353L1.03006 2.48654ZM6.00008 1.1665H10.0001V0.166504H6.00008V1.1665ZM14.8334 5.99984V9.99984H15.8334V5.99984H14.8334ZM10.0001 14.8332H6.00008V15.8332H10.0001V14.8332ZM1.16675 9.99984V5.99984H0.166748V9.99984H1.16675ZM6.00008 14.8332C5.05841 14.8332 4.38223 14.8328 3.85147 14.7894C3.32655 14.7465 2.98806 14.6641 2.71377 14.5244L2.25978 15.4154C2.69854 15.6389 3.18328 15.7382 3.77004 15.7861C4.35096 15.8336 5.07491 15.8332 6.00008 15.8332V14.8332ZM0.166748 9.99984C0.166748 10.925 0.166359 11.649 0.213823 12.2299C0.261763 12.8166 0.361 13.3014 0.584556 13.7401L1.47556 13.2861C1.33581 13.0119 1.25339 12.6734 1.2105 12.1484C1.16714 11.6177 1.16675 10.9415 1.16675 9.99984H0.166748ZM2.71377 14.5244C2.18065 14.2527 1.7472 13.8193 1.47556 13.2861L0.584556 13.7401C0.952071 14.4614 1.5385 15.0478 2.25978 15.4154L2.71377 14.5244ZM14.8334 9.99984C14.8334 10.9415 14.833 11.6177 14.7897 12.1484C14.7468 12.6734 14.6644 13.0119 14.5246 13.2861L15.4156 13.7401C15.6392 13.3014 15.7384 12.8166 15.7863 12.2299C15.8338 11.649 15.8334 10.925 15.8334 9.99984H14.8334ZM10.0001 15.8332C10.9253 15.8332 11.6492 15.8336 12.2301 15.7861C12.8169 15.7382 13.3016 15.6389 13.7404 15.4154L13.2864 14.5244C13.0121 14.6641 12.6736 14.7465 12.1487 14.7894C11.6179 14.8328 10.9418 14.8332 10.0001 14.8332V15.8332ZM14.5246 13.2861C14.253 13.8193 13.8195 14.2527 13.2864 14.5244L13.7404 15.4154C14.4617 15.0478 15.0481 14.4614 15.4156 13.7401L14.5246 13.2861ZM10.0001 1.1665C10.9418 1.1665 11.6179 1.16689 12.1487 1.21026C12.6736 1.25314 13.0121 1.33556 13.2864 1.47532L13.7404 0.584312C13.3016 0.360756 12.8169 0.261519 12.2301 0.213578C11.6492 0.166115 10.9253 0.166504 10.0001 0.166504V1.1665ZM15.8334 5.99984C15.8334 5.17519 15.8336 4.51187 15.8005 3.96936L14.8024 4.03031C14.8332 4.53541 14.8334 5.16357 14.8334 5.99984H15.8334ZM15.8005 3.96936C15.7591 3.29059 15.6635 2.74604 15.4156 2.25954L14.5246 2.71353C14.6801 3.01873 14.764 3.40171 14.8024 4.03031L15.8005 3.96936ZM13.2864 1.47532C13.8195 1.74696 14.253 2.1804 14.5246 2.71353L15.4156 2.25954C15.0481 1.53825 14.4617 0.951827 13.7404 0.584312L13.2864 1.47532ZM6.00008 0.166504C5.07491 0.166504 4.35096 0.166115 3.77004 0.213578C3.18328 0.261519 2.69854 0.360756 2.25978 0.584312L2.71377 1.47532C2.98806 1.33556 3.32655 1.25314 3.85147 1.21026C4.38223 1.16689 5.05841 1.1665 6.00008 1.1665V0.166504ZM1.16675 5.99984C1.16675 5.16357 1.16696 4.53541 1.1978 4.03031L0.19966 3.96936C0.166536 4.51187 0.166748 5.17519 0.166748 5.99984H1.16675ZM1.1978 4.03031C1.23618 3.40171 1.32006 3.01873 1.47556 2.71353L0.584556 2.25954C0.336675 2.74604 0.241104 3.29059 0.19966 3.96936L1.1978 4.03031ZM2.25978 0.584312C1.5385 0.951827 0.952071 1.53825 0.584556 2.25954L1.47556 2.71353C1.7472 2.1804 2.18065 1.74696 2.71377 1.47532L2.25978 0.584312ZM0.69873 4.49984H15.3014V3.49984H0.69873V4.49984Z" fill="white"/>
<path d="M4.6958 9.98663L4.27194 10.1093C4.25362 10.0107 4.19999 9.92048 4.11103 9.83868C4.02207 9.75689 3.89386 9.71599 3.72641 9.71599C3.58774 9.71599 3.47261 9.75208 3.38104 9.82425C3.29208 9.89642 3.2476 9.98302 3.2476 10.0841C3.2476 10.2597 3.35618 10.3691 3.57335 10.4124L3.97366 10.4882C4.21438 10.5315 4.40015 10.6193 4.53097 10.7516C4.66179 10.8839 4.7272 11.0415 4.7272 11.2243C4.7272 11.436 4.63824 11.6189 4.46032 11.7728C4.28502 11.9244 4.04562 12.0002 3.74211 12.0002C3.41505 12.0002 3.15995 11.922 2.9768 11.7656C2.79365 11.6068 2.6903 11.4228 2.66675 11.2135L3.10631 11.098C3.12201 11.2424 3.1848 11.3639 3.2947 11.4625C3.40459 11.5611 3.55372 11.6104 3.74211 11.6104C3.90433 11.6104 4.02861 11.578 4.11495 11.513C4.20391 11.4457 4.24839 11.3603 4.24839 11.2568C4.24839 11.1726 4.21569 11.1004 4.15027 11.0403C4.08486 10.9778 3.99329 10.9345 3.87555 10.9104L3.48308 10.8346C3.26591 10.7937 3.09323 10.7107 2.96502 10.5856C2.83943 10.4605 2.77664 10.3042 2.77664 10.1165C2.77664 9.90243 2.86952 9.7184 3.05529 9.56444C3.24106 9.41048 3.46346 9.3335 3.72249 9.3335C4.01814 9.3335 4.24447 9.39965 4.40145 9.53196C4.55844 9.66187 4.65656 9.81342 4.6958 9.98663Z" fill="white"/>
<path d="M5.68731 11.5491H6.18181C6.43823 11.5491 6.64885 11.4745 6.81369 11.3254C6.98114 11.1738 7.06487 10.9561 7.06487 10.6722C7.06487 10.386 6.98245 10.1671 6.81761 10.0155C6.65277 9.86154 6.44215 9.78456 6.18574 9.78456H5.68731V11.5491ZM6.19751 11.946H5.21634V9.38762H6.20144C6.5939 9.38762 6.91704 9.50189 7.17083 9.73043C7.42724 9.95897 7.55545 10.2729 7.55545 10.6722C7.55545 11.0692 7.42724 11.3807 7.17083 11.6068C6.91442 11.833 6.58998 11.946 6.19751 11.946Z" fill="white"/>
<path d="M9.75593 11.946L8.88858 10.8382L8.51966 11.2099V11.946H8.0487V9.38762H8.51966V10.6145L9.71669 9.38762H10.3368L9.2104 10.5171L10.3486 11.946H9.75593Z" fill="white"/>
<path d="M10.4891 11.4697L10.8855 11.3687C10.8933 11.4529 10.9313 11.5238 10.9993 11.5816C11.0673 11.6393 11.1589 11.6682 11.274 11.6682C11.363 11.6682 11.4323 11.6489 11.482 11.6104C11.5344 11.572 11.5605 11.5238 11.5605 11.4661C11.5605 11.3651 11.4859 11.3001 11.3368 11.2713L11.0542 11.2135C10.8894 11.1798 10.7625 11.1173 10.6735 11.0259C10.5846 10.9345 10.5401 10.8262 10.5401 10.7011C10.5401 10.5471 10.6081 10.4148 10.7442 10.3042C10.8802 10.1911 11.0464 10.1346 11.2426 10.1346C11.3682 10.1346 11.4794 10.1514 11.5762 10.1851C11.673 10.2188 11.7476 10.2633 11.7999 10.3186C11.8549 10.3715 11.8967 10.4233 11.9255 10.4738C11.9543 10.5243 11.9726 10.5748 11.9805 10.6253L11.5958 10.7264C11.5854 10.659 11.5514 10.5989 11.4938 10.5459C11.4389 10.4906 11.3551 10.463 11.2426 10.463C11.1641 10.463 11.0987 10.4834 11.0464 10.5243C10.9941 10.5628 10.9679 10.6097 10.9679 10.665C10.9679 10.7637 11.032 10.825 11.1602 10.8491L11.4506 10.9032C11.6285 10.9393 11.7646 11.0042 11.8588 11.098C11.953 11.1919 12.0001 11.3049 12.0001 11.4372C12.0001 11.584 11.936 11.7151 11.8078 11.8306C11.6822 11.9436 11.5056 12.0002 11.2779 12.0002C11.1471 12.0002 11.0294 11.9821 10.9247 11.946C10.8227 11.91 10.7416 11.8642 10.6814 11.8089C10.6238 11.7512 10.578 11.6946 10.544 11.6393C10.5126 11.5816 10.4943 11.525 10.4891 11.4697Z" fill="white"/>
</svg>
