<svg width="7" height="6" viewBox="0 0 7 6" fill="none" xmlns="http://www.w3.org/2000/svg">
<path d="M3.02447 0.463524C3.17415 0.00286913 3.82585 0.00286996 3.97553 0.463525L4.2858 1.41844C4.35274 1.62445 4.54471 1.76393 4.76133 1.76393H5.76539C6.24975 1.76393 6.45113 2.38374 6.05928 2.66844L5.24698 3.25861C5.07173 3.38593 4.9984 3.61162 5.06534 3.81763L5.37561 4.77254C5.52529 5.2332 4.99805 5.61626 4.60619 5.33156L3.79389 4.74139C3.61865 4.61407 3.38135 4.61407 3.20611 4.74139L2.39381 5.33156C2.00195 5.61626 1.47471 5.2332 1.62439 4.77254L1.93466 3.81763C2.0016 3.61162 1.92827 3.38593 1.75302 3.25861L0.940722 2.66844C0.548866 2.38374 0.750254 1.76393 1.23462 1.76393H2.23867C2.45529 1.76393 2.64726 1.62445 2.7142 1.41844L3.02447 0.463524Z" fill="url(#paint0_linear_6736_50884)"/>
<defs>
<linearGradient id="paint0_linear_6736_50884" x1="3.5" y1="-1" x2="3.5" y2="7" gradientUnits="userSpaceOnUse">
<stop stop-color="#FDFE53"/>
<stop offset="1" stop-color="#EB9B3A"/>
</linearGradient>
</defs>
</svg>
